<svg version="1.1" xmlns="http://www.w3.org/2000/svg" viewBox="0 0 479.86670238845375 349.0166524251303" width="959.7334047769075" height="698.0333048502606">
  <!-- svg-source:excalidraw -->
  
  <defs>
    <style class="style-fonts">
      @font-face {
        font-family: "Virgil";
        src: url("https://excalidraw.com/Virgil.woff2");
      }
      @font-face {
        font-family: "Cascadia";
        src: url("https://excalidraw.com/Cascadia.woff2");
      }
    </style>
  </defs>
  <rect x="0" y="0" width="479.86670238845375" height="349.0166524251303" fill="#ffffff"></rect><g stroke-linecap="round" transform="translate(123.6426965833324 134.2042677137589) rotate(0 98.9002312554253 60.604943169487825)"><path d="M0 0 C40.42 0, 80.84 0, 197.8 0 M0 0 C44.99 0, 89.97 0, 197.8 0 M197.8 0 C197.8 28.09, 197.8 56.17, 197.8 121.21 M197.8 0 C197.8 33.07, 197.8 66.14, 197.8 121.21 M197.8 121.21 C144.85 121.21, 91.89 121.21, 0 121.21 M197.8 121.21 C122.29 121.21, 46.77 121.21, 0 121.21 M0 121.21 C0 86.13, 0 51.06, 0 0 M0 121.21 C0 93.84, 0 66.47, 0 0" stroke="#000000" stroke-width="1" fill="none"></path></g><g stroke-linecap="round" transform="translate(94.90378463671772 97.12429131401922) rotate(0 126.81874593098959 93.9048088921441)"><path d="M0 0 C76.15 0, 152.3 0, 253.64 0 M0 0 C100.59 0, 201.19 0, 253.64 0 M253.64 0 C253.64 62.96, 253.64 125.92, 253.64 187.81 M253.64 0 C253.64 68.19, 253.64 136.37, 253.64 187.81 M253.64 187.81 C167.49 187.81, 81.35 187.81, 0 187.81 M253.64 187.81 C198.38 187.81, 143.12 187.81, 0 187.81 M0 187.81 C0 126.65, 0 65.5, 0 0 M0 187.81 C0 134.31, 0 80.81, 0 0" stroke="#000000" stroke-width="1" fill="none"></path></g><g stroke-linecap="round" transform="translate(27.176530404946845 40.24505276150188) rotate(0 196.65191650390616 149.3857998318142)"><path d="M0 0 C143.23 0, 286.46 0, 393.3 0 M0 0 C135.48 0, 270.96 0, 393.3 0 M393.3 0 C393.3 99.57, 393.3 199.14, 393.3 298.77 M393.3 0 C393.3 101.38, 393.3 202.76, 393.3 298.77 M393.3 298.77 C258.88 298.77, 124.46 298.77, 0 298.77 M393.3 298.77 C275.94 298.77, 158.57 298.77, 0 298.77 M0 298.77 C0 190.25, 0 81.72, 0 0 M0 298.77 C0 230.66, 0 162.54, 0 0" stroke="#000000" stroke-width="1" fill="none"></path></g><g transform="translate(130.9563019978287 113.87016805013019) rotate(0 5.121222601996607 2.8949652777778)" stroke="none"><path fill="#000000" d="M 1.21,-1.74 Q 1.21,-1.74 3.44,-0.05 5.67,1.62 8.38,2.77 11.09,3.93 11.36,4.11 11.64,4.30 11.84,4.56 12.04,4.82 12.15,5.13 12.25,5.45 12.25,5.78 12.26,6.11 12.15,6.42 12.05,6.74 11.85,7.00 11.65,7.26 11.38,7.45 11.10,7.64 10.78,7.73 10.47,7.82 10.14,7.80 9.81,7.78 9.50,7.66 9.19,7.54 8.94,7.33 8.69,7.11 8.51,6.83 8.34,6.55 8.27,6.23 8.20,5.90 8.23,5.57 8.27,5.25 8.40,4.95 8.54,4.64 8.77,4.40 8.99,4.16 9.29,4.01 9.58,3.85 9.90,3.80 10.23,3.74 10.56,3.79 10.88,3.85 11.18,4.00 11.47,4.15 11.70,4.39 11.92,4.63 12.06,4.93 12.20,5.23 12.24,5.56 12.28,5.89 12.21,6.21 12.14,6.53 11.97,6.82 11.80,7.10 11.55,7.32 11.30,7.53 10.99,7.66 10.68,7.78 10.35,7.80 10.02,7.82 9.70,7.73 9.39,7.64 9.39,7.64 9.39,7.64 6.44,6.20 3.49,4.76 1.13,3.25 -1.21,1.74 -1.40,1.57 -1.60,1.40 -1.74,1.19 -1.89,0.97 -1.97,0.73 -2.06,0.49 -2.09,0.24 -2.12,-0.01 -2.09,-0.26 -2.06,-0.52 -1.97,-0.75 -1.88,-0.99 -1.73,-1.20 -1.58,-1.42 -1.39,-1.58 -1.20,-1.75 -0.97,-1.87 -0.74,-1.99 -0.49,-2.05 -0.24,-2.11 0.01,-2.11 0.26,-2.11 0.51,-2.04 0.76,-1.98 0.99,-1.86 1.21,-1.74 1.21,-1.74 L 1.21,-1.74 Z"></path></g><g transform="translate(122.41639856900935 123.64491441514758) rotate(0 103.78139919704861 -4.069654676649321)" stroke="none"><path fill="#000000" d="M 0,-10.06 Q 0,-10.06 2.58,-10.25 5.17,-10.44 9.48,-10.85 13.79,-11.26 18.46,-11.90 23.13,-12.53 27.35,-13.85 31.56,-15.17 35.71,-16.56 39.85,-17.95 44.16,-18.66 48.48,-19.37 52.91,-19.57 57.33,-19.77 61.63,-19.48 65.93,-19.20 70.18,-19.32 74.43,-19.44 79.01,-19.53 83.59,-19.62 88.45,-19.70 93.31,-19.78 98.25,-19.84 103.19,-19.89 107.63,-19.95 112.08,-20.02 116.57,-20.08 121.07,-20.14 125.30,-20.58 129.53,-21.02 134.16,-21.73 138.78,-22.43 143.93,-22.96 149.09,-23.48 153.46,-23.55 157.84,-23.61 162.36,-23.28 166.89,-22.95 171.19,-22.02 175.49,-21.10 180.23,-21.03 184.97,-20.96 189.43,-21.32 193.89,-21.67 198.19,-22.42 202.50,-23.16 209.12,-21.24 215.74,-19.32 217.67,-17.66 219.59,-16.01 220.89,-13.82 222.18,-11.64 222.71,-9.15 223.24,-6.67 222.95,-4.15 222.65,-1.62 221.57,0.66 220.49,2.96 218.73,4.79 216.97,6.62 214.72,7.80 212.47,8.97 209.96,9.37 207.45,9.76 204.95,9.33 202.44,8.90 200.21,7.70 197.97,6.49 196.24,4.64 194.50,2.78 193.45,0.47 192.40,-1.83 192.15,-4.36 191.89,-6.89 192.45,-9.36 193.02,-11.84 194.34,-14.01 195.67,-16.17 197.61,-17.80 199.56,-19.43 201.93,-20.36 204.29,-21.28 206.83,-21.40 209.37,-21.52 211.81,-20.82 214.25,-20.13 216.34,-18.69 218.43,-17.25 219.96,-15.21 221.48,-13.18 222.27,-10.77 223.07,-8.36 223.05,-5.82 223.03,-3.28 222.20,-0.88 221.37,1.51 219.82,3.52 218.27,5.54 216.16,6.95 214.05,8.36 211.59,9.02 209.14,9.68 206.61,9.52 204.07,9.37 201.72,8.41 199.37,7.45 199.37,7.46 199.37,7.46 198.88,8.45 198.39,9.44 193.46,9.86 188.54,10.29 184.06,10.27 179.58,10.25 174.95,9.92 170.32,9.58 165.71,8.48 161.10,7.38 156.60,7.34 152.10,7.29 147.76,7.64 143.42,7.99 138.71,8.63 134.00,9.27 129.03,9.76 124.06,10.24 119.58,10.18 115.10,10.12 110.64,10.05 106.17,9.99 101.84,9.94 97.51,9.89 92.91,9.83 88.32,9.77 83.80,9.68 79.28,9.60 74.36,9.48 69.43,9.37 64.83,9.02 60.23,8.67 55.59,8.25 50.96,7.82 46.47,8.25 41.99,8.67 37.38,9.67 32.78,10.67 28.56,11.18 24.33,11.70 19.06,11.48 13.79,11.26 9.48,10.85 5.17,10.44 2.58,10.25 0,10.06 -1.20,9.91 -2.40,9.77 -3.54,9.34 -4.67,8.91 -5.67,8.22 -6.67,7.53 -7.47,6.62 -8.28,5.71 -8.84,4.64 -9.41,3.56 -9.70,2.39 -9.99,1.21 -9.99,-0.00 -9.99,-1.21 -9.70,-2.39 -9.41,-3.56 -8.84,-4.64 -8.28,-5.71 -7.47,-6.62 -6.67,-7.53 -5.67,-8.22 -4.67,-8.91 -3.54,-9.34 -2.40,-9.77 -1.20,-9.91 0.00,-10.06 0.00,-10.06 L 0,-10.06 Z"></path></g><g transform="translate(105.04931957595369 117.51745944552954) rotate(0 3.3194647894965783 76.25656127929688)" stroke="none"><path fill="#000000" d="M 9.54,0 Q 9.54,0 9.71,1.64 9.89,3.28 11.18,7.35 12.47,11.42 13.36,16.55 14.26,21.67 14.61,26.20 14.97,30.72 15.26,35.18 15.56,39.64 16.05,44.14 16.55,48.63 16.74,53.05 16.92,57.48 17.07,61.74 17.21,66.00 17.34,70.52 17.47,75.03 17.58,79.50 17.69,83.97 17.90,88.58 18.10,93.19 18.48,97.99 18.87,102.79 19.47,107.88 20.08,112.98 20.85,117.68 21.62,122.38 21.83,126.85 22.04,131.32 22.08,135.66 22.12,140.00 21.57,144.31 21.03,148.63 20.41,152.52 19.78,156.41 18.76,158.71 17.75,161.02 16.05,162.88 14.35,164.74 12.14,165.96 9.94,167.18 7.46,167.63 4.98,168.08 2.49,167.72 -0.00,167.35 -2.25,166.21 -4.49,165.07 -6.26,163.28 -8.02,161.48 -9.12,159.21 -10.22,156.94 -10.54,154.44 -10.85,151.94 -10.36,149.47 -9.86,147.00 -8.60,144.82 -7.34,142.64 -5.45,140.97 -3.56,139.31 -1.23,138.33 1.08,137.36 3.60,137.18 6.11,137.00 8.55,137.63 10.99,138.26 13.10,139.64 15.21,141.01 16.77,142.99 18.33,144.97 19.18,147.34 20.02,149.72 20.07,152.24 20.11,154.76 19.35,157.16 18.59,159.56 17.10,161.59 15.61,163.62 13.55,165.08 11.49,166.53 9.07,167.24 6.66,167.96 4.14,167.87 1.62,167.78 -0.73,166.88 -3.08,165.99 -5.03,164.40 -6.98,162.80 -8.32,160.66 -9.65,158.53 -10.24,156.08 -10.82,153.63 -10.60,151.12 -10.37,148.61 -10.37,148.61 -10.37,148.61 -10.28,148.59 -10.20,148.57 -9.51,143.83 -8.83,139.10 -8.79,134.79 -8.75,130.49 -9.07,125.90 -9.38,121.31 -10.12,116.47 -10.86,111.63 -11.04,107.34 -11.21,103.04 -11.49,98.12 -11.76,93.20 -11.83,88.58 -11.90,83.97 -11.79,79.50 -11.68,75.03 -11.55,70.52 -11.42,66.00 -11.28,61.74 -11.14,57.48 -10.96,52.90 -10.78,48.33 -10.78,43.68 -10.78,39.03 -10.48,34.57 -10.18,30.11 -9.86,25.68 -9.54,21.24 -9.40,16.53 -9.26,11.82 -9.57,7.55 -9.89,3.29 -9.71,1.64 -9.54,0 -9.40,-1.14 -9.26,-2.28 -8.85,-3.35 -8.44,-4.43 -7.79,-5.38 -7.14,-6.32 -6.28,-7.08 -5.41,-7.85 -4.40,-8.38 -3.38,-8.92 -2.26,-9.19 -1.14,-9.47 0.00,-9.47 1.15,-9.47 2.26,-9.19 3.38,-8.92 4.40,-8.38 5.42,-7.85 6.28,-7.08 7.14,-6.32 7.79,-5.37 8.44,-4.43 8.85,-3.35 9.26,-2.28 9.40,-1.14 9.54,0.00 9.54,0.00 L 9.54,0 Z"></path></g><g transform="translate(125.92374991449543 274.95666164822046) rotate(0 99.54352484809024 -4.0558709038628535)" stroke="none"><path fill="#000000" d="M 0,-9.94 Q 0,-9.94 2.73,-10.14 5.46,-10.33 10.11,-10.79 14.77,-11.24 19.16,-11.64 23.55,-12.03 28.48,-12.36 33.41,-12.69 37.76,-12.92 42.10,-13.15 46.53,-13.35 50.96,-13.54 55.78,-14.01 60.60,-14.47 65.22,-14.64 69.83,-14.82 74.38,-15.36 78.94,-15.90 83.55,-16.51 88.16,-17.13 92.80,-17.58 97.44,-18.04 102.05,-18.32 106.66,-18.61 111.08,-18.91 115.51,-19.20 119.93,-19.25 124.36,-19.31 128.83,-19.35 133.29,-19.40 137.58,-19.43 141.87,-19.45 146.22,-19.48 150.56,-19.52 155.21,-19.54 159.86,-19.57 164.64,-19.59 169.42,-19.61 173.76,-20.08 178.10,-20.54 182.95,-21.19 187.80,-21.84 186.14,-17.72 184.49,-13.60 185.75,-15.79 187.01,-17.97 188.90,-19.64 190.79,-21.31 193.11,-22.29 195.44,-23.27 197.96,-23.45 200.47,-23.64 202.92,-23.01 205.36,-22.38 207.47,-21.01 209.59,-19.63 211.15,-17.65 212.72,-15.67 213.57,-13.30 214.42,-10.92 214.47,-8.40 214.52,-5.88 213.76,-3.47 213.00,-1.07 211.51,0.96 210.02,3.00 207.96,4.45 205.90,5.91 203.48,6.63 201.06,7.35 198.54,7.26 196.02,7.17 193.66,6.28 191.30,5.40 189.34,3.80 187.39,2.20 186.05,0.07 184.71,-2.06 184.12,-4.51 183.53,-6.97 183.75,-9.48 183.98,-11.99 185.00,-14.30 186.01,-16.61 187.71,-18.48 189.41,-20.34 191.62,-21.56 193.82,-22.79 196.31,-23.24 198.79,-23.70 201.28,-23.34 203.78,-22.98 206.03,-21.84 208.28,-20.70 210.05,-18.90 211.82,-17.10 212.92,-14.83 214.03,-12.56 214.35,-10.06 214.67,-7.56 214.17,-5.08 213.67,-2.61 213.68,-2.61 213.68,-2.61 205.81,2.74 197.94,8.10 193.30,8.77 188.66,9.45 184.26,10.05 179.87,10.64 174.64,11.04 169.42,11.44 164.64,11.42 159.86,11.40 155.21,11.37 150.56,11.35 146.22,11.32 141.87,11.28 137.58,11.26 133.29,11.23 128.83,11.19 124.36,11.14 119.96,11.09 115.57,11.03 111.08,11.28 106.59,11.53 102.05,11.56 97.51,11.60 92.71,12.01 87.91,12.42 83.43,12.85 78.95,13.28 74.39,13.44 69.83,13.61 65.15,13.51 60.48,13.41 55.72,13.48 50.96,13.54 46.53,13.35 42.10,13.15 37.76,12.92 33.41,12.69 28.48,12.36 23.55,12.03 19.16,11.64 14.77,11.24 10.11,10.79 5.46,10.33 2.73,10.14 0,9.94 -1.18,9.79 -2.37,9.65 -3.50,9.22 -4.62,8.80 -5.60,8.12 -6.59,7.44 -7.38,6.54 -8.18,5.64 -8.74,4.58 -9.29,3.52 -9.58,2.36 -9.87,1.19 -9.87,-0.00 -9.87,-1.19 -9.58,-2.36 -9.29,-3.52 -8.73,-4.58 -8.18,-5.64 -7.38,-6.54 -6.59,-7.44 -5.60,-8.12 -4.62,-8.80 -3.49,-9.22 -2.37,-9.65 -1.18,-9.79 0.00,-9.94 0.00,-9.94 L 0,-9.94 Z"></path></g><g transform="translate(337.3748268459191 125.03712632921008) rotate(0 -1.5285237630208712 73.6362542046441)" stroke="none"><path fill="#000000" d="M 9.79,0 Q 9.79,0 9.97,1.90 10.15,3.80 10.66,8.48 11.16,13.16 11.58,17.66 12.00,22.16 12.00,27.33 12.00,32.50 11.92,36.88 11.85,41.26 12.07,45.92 12.29,50.58 12.37,55.12 12.46,59.66 12.19,64.17 11.92,68.68 12.02,73.19 12.12,77.69 12.21,82.31 12.30,86.93 12.39,91.61 12.48,96.29 12.54,100.59 12.60,104.89 12.66,109.44 12.72,113.98 12.77,118.63 12.83,123.28 12.86,127.99 12.90,132.70 12.94,137.00 12.99,141.31 11.80,146.71 10.62,152.12 11.53,149.69 12.44,147.27 12.04,149.74 11.63,152.22 10.46,154.44 9.28,156.65 7.46,158.38 5.64,160.10 3.36,161.16 1.08,162.21 -1.40,162.48 -3.89,162.75 -6.34,162.21 -8.79,161.67 -10.94,160.38 -13.09,159.08 -14.72,157.17 -16.34,155.26 -17.27,152.93 -18.20,150.60 -18.33,148.09 -18.47,145.59 -17.79,143.17 -17.12,140.75 -15.72,138.68 -14.31,136.60 -12.31,135.08 -10.31,133.57 -7.93,132.77 -5.56,131.97 -3.05,131.97 -0.54,131.97 1.83,132.77 4.20,133.57 6.20,135.09 8.20,136.61 9.60,138.68 11.01,140.76 11.68,143.18 12.35,145.60 12.22,148.10 12.08,150.60 11.15,152.94 10.22,155.27 8.60,157.18 6.97,159.09 4.82,160.38 2.67,161.67 0.22,162.21 -2.22,162.75 -4.71,162.48 -7.21,162.21 -9.48,161.15 -11.76,160.10 -13.58,158.37 -15.40,156.65 -16.57,154.43 -17.75,152.21 -18.15,149.74 -18.56,147.26 -18.56,147.26 -18.56,147.27 -18.23,142.10 -17.90,136.92 -17.86,132.57 -17.82,128.22 -17.78,123.80 -17.74,119.38 -17.69,115.04 -17.64,110.69 -17.58,106.16 -17.52,101.64 -17.44,97.00 -17.37,92.36 -17.28,87.91 -17.19,83.45 -17.11,79.12 -17.02,74.79 -16.91,70.43 -16.79,66.07 -16.11,61.49 -15.42,56.90 -15.24,52.64 -15.07,48.38 -14.85,43.89 -14.62,39.39 -14.03,35.17 -13.45,30.94 -12.73,26.55 -12.00,22.16 -11.58,17.66 -11.16,13.16 -10.66,8.48 -10.15,3.80 -9.97,1.90 -9.79,0 -9.65,-1.17 -9.50,-2.34 -9.09,-3.44 -8.67,-4.55 -8.00,-5.52 -7.33,-6.49 -6.44,-7.27 -5.56,-8.06 -4.51,-8.60 -3.47,-9.15 -2.32,-9.44 -1.18,-9.72 0.00,-9.72 1.18,-9.72 2.32,-9.44 3.47,-9.15 4.51,-8.60 5.56,-8.06 6.44,-7.27 7.33,-6.49 8.00,-5.52 8.67,-4.55 9.09,-3.44 9.50,-2.34 9.65,-1.17 9.79,0.00 9.79,0.00 L 9.79,0 Z"></path></g><g transform="translate(184.38952953689125 107.14856974283856) rotate(0 -37.04847547743057 2.073025173611086)" stroke="none"><path fill="#000000" d="M 0,10.19 Q 0,10.19 -2.61,10.38 -5.23,10.56 -9.97,11.10 -14.71,11.64 -19.68,12.06 -24.64,12.47 -29.20,12.62 -33.77,12.76 -38.24,12.91 -42.72,13.05 -47.25,13.53 -51.79,14.02 -56.83,15.27 -61.87,16.53 -65.95,17.43 -70.02,18.33 -72.35,18.62 -74.68,18.90 -76.98,18.43 -79.28,17.95 -81.31,16.77 -83.34,15.59 -84.88,13.82 -86.43,12.05 -87.32,9.88 -88.22,7.71 -88.38,5.37 -88.54,3.03 -87.94,0.75 -87.35,-1.51 -86.05,-3.47 -84.76,-5.43 -82.91,-6.87 -81.06,-8.32 -78.85,-9.10 -76.63,-9.88 -74.28,-9.91 -71.94,-9.94 -69.70,-9.22 -67.47,-8.50 -65.58,-7.11 -63.69,-5.71 -62.35,-3.79 -61.00,-1.86 -60.34,0.38 -59.69,2.64 -59.78,4.98 -59.88,7.33 -60.72,9.52 -61.56,11.72 -63.05,13.52 -64.55,15.33 -66.54,16.57 -68.54,17.81 -70.83,18.34 -73.11,18.88 -75.45,18.66 -77.79,18.44 -79.93,17.48 -82.08,16.52 -83.80,14.93 -85.53,13.34 -86.66,11.28 -87.78,9.22 -88.19,6.90 -88.60,4.59 -88.26,2.27 -87.91,-0.04 -86.83,-2.13 -85.76,-4.22 -84.08,-5.86 -82.40,-7.49 -80.28,-8.51 -78.16,-9.52 -78.16,-9.52 -78.16,-9.52 -78.64,-9.34 -79.12,-9.17 -74.30,-10.49 -69.48,-11.80 -65.07,-12.17 -60.67,-12.54 -56.21,-13.12 -51.75,-13.70 -47.23,-13.63 -42.72,-13.57 -38.36,-13.30 -33.99,-13.03 -29.33,-12.44 -24.67,-11.84 -20.30,-11.52 -15.93,-11.20 -10.58,-10.88 -5.23,-10.56 -2.61,-10.38 0,-10.19 1.22,-10.04 2.44,-9.90 3.58,-9.46 4.73,-9.02 5.75,-8.33 6.76,-7.63 7.57,-6.71 8.39,-5.79 8.96,-4.70 9.53,-3.61 9.82,-2.42 10.12,-1.22 10.12,0.00 10.12,1.22 9.82,2.42 9.53,3.61 8.96,4.70 8.39,5.79 7.57,6.71 6.76,7.63 5.74,8.33 4.73,9.02 3.58,9.46 2.43,9.90 1.21,10.04 -0.00,10.19 -0.00,10.19 L 0,10.19 Z"></path></g><g transform="translate(146.97592819140516 169.4548577202691) rotate(0 56.5 14.5)"><text x="0" y="21" font-family="Virgil, Segoe UI Emoji" font-size="20px" fill="#000000" text-anchor="start" style="white-space: pre;" direction="ltr">内容+内边距</text></g><g stroke-linecap="round"><g transform="translate(94.61251130772456 300.01830715603296) rotate(0 -0.08548312717010731 13.09649997287329)"><path d="M0 0 C-0.04 5.78, -0.08 11.56, -0.17 26.19 M0 0 C-0.05 7.59, -0.1 15.18, -0.17 26.19" stroke="#000000" stroke-width="1" fill="none"></path></g></g><mask></mask><g stroke-linecap="round"><g transform="translate(351.4922584865441 300.88327704535595) rotate(0 0.5814615885416288 15.292595757378479)"><path d="M0 0 C0.27 7.05, 0.54 14.11, 1.16 30.59 M0 0 C0.39 10.26, 0.78 20.52, 1.16 30.59" stroke="#000000" stroke-width="1" fill="none"></path></g></g><mask></mask><g stroke-linecap="round"><g transform="translate(362.9965038207455 95.36335923936633) rotate(0 26.77530924479163 -0.046403672960082076)"><path d="M0 0 C17.93 -0.03, 35.86 -0.06, 53.55 -0.09 M0 0 C18.16 -0.03, 36.31 -0.06, 53.55 -0.09" stroke="#000000" stroke-width="1" fill="none"></path></g></g><mask></mask><g stroke-linecap="round"><g transform="translate(360.5369226575509 284.3890007866754) rotate(0 28.026156955295164 -0.12975056966149623)"><path d="M0 0 C13.95 -0.06, 27.9 -0.13, 56.05 -0.26 M0 0 C19.47 -0.09, 38.94 -0.18, 56.05 -0.26" stroke="#000000" stroke-width="1" fill="none"></path></g></g><mask></mask><g stroke-linecap="round"><g transform="translate(97.61211797005097 312.13029310438367) rotate(0 123.70473225911459 1.287078857421875)"><path d="M0 0 C85.46 0.89, 170.92 1.78, 247.41 2.57 M0 0 C76.16 0.79, 152.31 1.58, 247.41 2.57" stroke="#000000" stroke-width="1" fill="none"></path></g></g><mask></mask><g stroke-linecap="round"><g transform="translate(389.471520096787 96.16668362087671) rotate(0 1.3506401909722854 95.21959092881946)"><path d="M0 0 C0.94 66.15, 1.88 132.3, 2.7 190.44 M0 0 C1.02 71.89, 2.04 143.77, 2.7 190.44" stroke="#000000" stroke-width="1" fill="none"></path></g></g><mask></mask><g transform="translate(161.90142461067592 314.6035461425781) rotate(0 50.5 11.5)"><text x="0" y="19" font-family="Helvetica, Segoe UI Emoji" font-size="20px" fill="#000000" text-anchor="start" style="white-space: pre;" direction="ltr">offsetWidth</text></g><g transform="translate(362.86670238845375 160.98743014865454) rotate(0 53.5 11.5)"><text x="0" y="19" font-family="Helvetica, Segoe UI Emoji" font-size="20px" fill="#000000" text-anchor="start" style="white-space: pre;" direction="ltr">offsetHeight</text></g><g transform="translate(28.470068816405103 10) rotate(0 54 11.5)"><text x="0" y="19" font-family="Helvetica, Segoe UI Emoji" font-size="20px" fill="#000000" text-anchor="start" style="white-space: pre;" direction="ltr">offsetParent</text></g><g transform="translate(123.99476770963435 105.39776272243921) rotate(0 20.50000000000003 14.5)"><text x="0" y="21" font-family="Virgil, Segoe UI Emoji" font-size="20px" fill="#e67700" text-anchor="start" style="white-space: pre;" direction="ltr">边框</text></g><g stroke-linecap="round"><g transform="translate(216.73073583946677 39.995306491333196) rotate(0 0.9288587545854057 28.805480648595946)"><path d="M0 0 C0.25 15.92, 0.5 31.85, 0.66 41.88 M0 0 C0.2 12.84, 0.4 25.68, 0.66 41.88 M0.66 41.88 C0.97 46.02, 1.29 50.17, 1.86 57.61 M0.66 41.88 C1.08 47.42, 1.5 52.95, 1.86 57.61" stroke="#e67700" stroke-width="1" fill="none"></path></g><g transform="translate(216.73073583946677 39.995306491333196) rotate(0 0.9288587545854057 28.805480648595946)"><path d="M-1.4 50.42 C-0.16 53.16, 1.08 55.89, 1.86 57.61 M-1.4 50.42 C-0.4 52.63, 0.6 54.83, 1.86 57.61" stroke="#e67700" stroke-width="1" fill="none"></path></g><g transform="translate(216.73073583946677 39.995306491333196) rotate(0 0.9288587545854057 28.805480648595946)"><path d="M3.98 50.01 C3.18 52.9, 2.37 55.79, 1.86 57.61 M3.98 50.01 C3.33 52.34, 2.68 54.67, 1.86 57.61" stroke="#e67700" stroke-width="1" fill="none"></path></g></g><mask></mask><g stroke-linecap="round"><g transform="translate(217.53860252175002 59.30842143291045) rotate(0 0 -8.852599539600277)"><path d="M0 0 C0 -4.26, 0 -8.51, 0 -17.71 M0 0 C0 -4.42, 0 -8.85, 0 -17.71" stroke="#e67700" stroke-width="1" fill="none"></path></g><g transform="translate(217.53860252175002 59.30842143291045) rotate(0 0 -8.852599539600277)"><path d="M3.03 -9.39 C2.3 -11.39, 1.57 -13.39, 0 -17.71 M3.03 -9.39 C2.27 -11.46, 1.52 -13.54, 0 -17.71" stroke="#e67700" stroke-width="1" fill="none"></path></g><g transform="translate(217.53860252175002 59.30842143291045) rotate(0 0 -8.852599539600277)"><path d="M-3.03 -9.39 C-2.3 -11.39, -1.57 -13.39, 0 -17.71 M-3.03 -9.39 C-2.27 -11.46, -1.52 -13.54, 0 -17.71" stroke="#e67700" stroke-width="1" fill="none"></path></g></g><mask></mask><g stroke-linecap="round"><g transform="translate(29.23708077220175 176.30369644777966) rotate(0 32.20610378818023 -0.6885601680738489)"><path d="M0 0 C12.37 -0.04, 24.74 -0.08, 44.65 -0.15 M0 0 C14.88 -0.05, 29.77 -0.1, 44.65 -0.15 M44.65 -0.15 C52 -0.61, 59.35 -1.06, 64.41 -1.38 M44.65 -0.15 C50.14 -0.49, 55.63 -0.83, 64.41 -1.38" stroke="#e67700" stroke-width="1" fill="none"></path></g><g transform="translate(29.23708077220175 176.30369644777966) rotate(0 32.20610378818023 -0.6885601680738489)"><path d="M55.34 2.58 C57.85 1.48, 60.36 0.39, 64.41 -1.38 M55.34 2.58 C58.36 1.26, 61.39 -0.06, 64.41 -1.38" stroke="#e67700" stroke-width="1" fill="none"></path></g><g transform="translate(29.23708077220175 176.30369644777966) rotate(0 32.20610378818023 -0.6885601680738489)"><path d="M54.92 -4.18 C57.55 -3.4, 60.18 -2.63, 64.41 -1.38 M54.92 -4.18 C58.08 -3.25, 61.25 -2.31, 64.41 -1.38" stroke="#e67700" stroke-width="1" fill="none"></path></g></g><mask></mask><g stroke-linecap="round"><g transform="translate(51.3371691492697 176.5327967288003) rotate(0 -12.351537214156167 0)"><path d="M0 0 C-7.16 0, -14.31 0, -24.7 0 M0 0 C-9.41 0, -18.82 0, -24.7 0" stroke="#e67700" stroke-width="1" fill="none"></path></g><g transform="translate(51.3371691492697 176.5327967288003) rotate(0 -12.351537214156167 0)"><path d="M-13.1 -4.22 C-16.46 -3, -19.82 -1.78, -24.7 0 M-13.1 -4.22 C-17.52 -2.62, -21.94 -1.01, -24.7 0" stroke="#e67700" stroke-width="1" fill="none"></path></g><g transform="translate(51.3371691492697 176.5327967288003) rotate(0 -12.351537214156167 0)"><path d="M-13.1 4.22 C-16.46 3, -19.82 1.78, -24.7 0 M-13.1 4.22 C-17.52 2.62, -21.94 1.01, -24.7 0" stroke="#e67700" stroke-width="1" fill="none"></path></g></g><mask></mask><g transform="translate(229.23432201814308 59.908662857876095) rotate(0 41 11.5)"><text x="0" y="19" font-family="Helvetica, Segoe UI Emoji" font-size="20px" fill="#000000" text-anchor="start" style="white-space: pre;" direction="ltr">offsetTop</text></g><g transform="translate(10 191.9962414468916) rotate(0 41.5 11.5)"><text x="0" y="19" font-family="Helvetica, Segoe UI Emoji" font-size="20px" fill="#000000" text-anchor="start" style="white-space: pre;" direction="ltr">offsetLeft</text></g><g stroke-linecap="round" transform="translate(95.67040799707632 95.87161566034393) rotate(0 126.96633174283645 94.36956506198425)"><path d="M0 0 C52.27 0, 104.53 0, 253.93 0 M0 0 C58.72 0, 117.43 0, 253.93 0 M253.93 0 C253.93 61.49, 253.93 122.97, 253.93 188.74 M253.93 0 C253.93 61.87, 253.93 123.73, 253.93 188.74 M253.93 188.74 C186.17 188.74, 118.41 188.74, 0 188.74 M253.93 188.74 C184 188.74, 114.06 188.74, 0 188.74 M0 188.74 C0 149.84, 0 110.94, 0 0 M0 188.74 C0 123.5, 0 58.27, 0 0" stroke="#364fc7" stroke-width="2" fill="none"></path></g><g stroke-linecap="round"><g transform="translate(124.99753051357362 215.68561484917086) rotate(0 97.34298931137718 -1.8613008294722988)"><path d="M0 0 C48.76 -1, 97.52 -2, 181.97 -3.72 M0 0 C69.86 -1.43, 139.72 -2.86, 181.97 -3.72 M181.97 -3.72 C187 -3.47, 192.03 -3.22, 194.69 -3.08 M181.97 -3.72 C186.71 -3.48, 191.44 -3.25, 194.69 -3.08" stroke="#c92a2a" stroke-width="2" fill="none"></path></g><g transform="translate(124.99753051357362 215.68561484917086) rotate(0 97.34298931137718 -1.8613008294722988)"><path d="M188.6 -1.21 C190.23 -1.71, 191.86 -2.21, 194.69 -3.08 M188.6 -1.21 C190.94 -1.93, 193.27 -2.65, 194.69 -3.08" stroke="#c92a2a" stroke-width="2" fill="none"></path></g><g transform="translate(124.99753051357362 215.68561484917086) rotate(0 97.34298931137718 -1.8613008294722988)"><path d="M188.82 -5.56 C190.39 -4.9, 191.96 -4.23, 194.69 -3.08 M188.82 -5.56 C191.07 -4.61, 193.32 -3.66, 194.69 -3.08" stroke="#c92a2a" stroke-width="2" fill="none"></path></g></g><mask></mask><g transform="translate(147.79801613088966 228.90698044352138) rotate(0 39.5 9)"><text x="0" y="15" font-family="Helvetica, Segoe UI Emoji" font-size="16px" fill="#c92a2a" text-anchor="start" style="white-space: pre;" direction="ltr">clientWidth</text></g></svg>