<svg id="SvgjsSvg1006" width="703.84375" height="501.7421875" xmlns="http://www.w3.org/2000/svg" version="1.1" xmlns:xlink="http://www.w3.org/1999/xlink" xmlns:svgjs="http://svgjs.com/svgjs"><defs id="SvgjsDefs1007"><marker id="SvgjsMarker1010" markerWidth="14" markerHeight="10" refX="10" refY="5" viewBox="0 0 14 10" orient="auto" markerUnits="userSpaceOnUse" stroke-dasharray="0,0"><path id="SvgjsPath1011" d="M0,0 L14,5 L0,10 L0,0" fill="#323232" stroke="#323232" stroke-width="1"></path></marker><marker id="SvgjsMarker1014" markerWidth="14" markerHeight="10" refX="10" refY="5" viewBox="0 0 14 10" orient="auto" markerUnits="userSpaceOnUse" stroke-dasharray="0,0"><path id="SvgjsPath1015" d="M0,0 L14,5 L0,10 L0,0" fill="#323232" stroke="#323232" stroke-width="1"></path></marker><marker id="SvgjsMarker1032" markerWidth="14" markerHeight="10" refX="10" refY="5" viewBox="0 0 14 10" orient="auto" markerUnits="userSpaceOnUse" stroke-dasharray="0,0"><path id="SvgjsPath1033" d="M0,0 L14,5 L0,10 L0,0" fill="#323232" stroke="#323232" stroke-width="1"></path></marker><marker id="SvgjsMarker1100" markerWidth="14" markerHeight="10" refX="10" refY="5" viewBox="0 0 14 10" orient="auto" markerUnits="userSpaceOnUse" stroke-dasharray="0,0"><path id="SvgjsPath1101" d="M0,0 L14,5 L0,10 L0,0" fill="#323232" stroke="#323232" stroke-width="1"></path></marker><marker id="SvgjsMarker1106" markerWidth="14" markerHeight="10" refX="4" refY="5" viewBox="0 0 14 10" orient="auto" markerUnits="userSpaceOnUse" stroke-dasharray="0,0"><path id="SvgjsPath1107" d="M14,0 L0,5 L14,10 L14,0" fill="#323232" stroke="#323232" stroke-width="1"></path></marker><marker id="SvgjsMarker1108" markerWidth="14" markerHeight="10" refX="10" refY="5" viewBox="0 0 14 10" orient="auto" markerUnits="userSpaceOnUse" stroke-dasharray="0,0"><path id="SvgjsPath1109" d="M0,0 L14,5 L0,10 L0,0" fill="#323232" stroke="#323232" stroke-width="1"></path></marker><marker id="SvgjsMarker1112" markerWidth="14" markerHeight="10" refX="4" refY="5" viewBox="0 0 14 10" orient="auto" markerUnits="userSpaceOnUse" stroke-dasharray="0,0"><path id="SvgjsPath1113" d="M14,0 L0,5 L14,10 L14,0" fill="#323232" stroke="#323232" stroke-width="1"></path></marker><marker id="SvgjsMarker1114" markerWidth="14" markerHeight="10" refX="10" refY="5" viewBox="0 0 14 10" orient="auto" markerUnits="userSpaceOnUse" stroke-dasharray="0,0"><path id="SvgjsPath1115" d="M0,0 L14,5 L0,10 L0,0" fill="#323232" stroke="#323232" stroke-width="1"></path></marker><marker id="SvgjsMarker1118" markerWidth="14" markerHeight="10" refX="10" refY="5" viewBox="0 0 14 10" orient="auto" markerUnits="userSpaceOnUse" stroke-dasharray="0,0"><path id="SvgjsPath1119" d="M0,0 L14,5 L0,10 L0,0" fill="#323232" stroke="#323232" stroke-width="1"></path></marker><marker id="SvgjsMarker1122" markerWidth="14" markerHeight="10" refX="10" refY="5" viewBox="0 0 14 10" orient="auto" markerUnits="userSpaceOnUse" stroke-dasharray="0,0"><path id="SvgjsPath1123" d="M0,0 L14,5 L0,10 L0,0" fill="#323232" stroke="#323232" stroke-width="1"></path></marker><marker id="SvgjsMarker1126" markerWidth="14" markerHeight="10" refX="10" refY="5" viewBox="0 0 14 10" orient="auto" markerUnits="userSpaceOnUse" stroke-dasharray="0,0"><path id="SvgjsPath1127" d="M0,0 L14,5 L0,10 L0,0" fill="#323232" stroke="#323232" stroke-width="1"></path></marker></defs><g id="SvgjsG1008"><path id="SvgjsPath1009" d="M145.34635416666686 71.91796066252599L145.34635416666686 273.6570910973086L145.34635416666686 273.6570910973086L145.34635416666686 475.3962215320912" stroke="#323232" stroke-width="2" fill="none" marker-end="url(#SvgjsMarker1010)"></path></g><g id="SvgjsG1012"><path id="SvgjsPath1013" d="M514.3463541666669 83.7440476190477L514.3463541666669 280.43969979296077L514.3463541666669 280.43969979296077L514.3463541666669 477.1353519668738" stroke="#323232" stroke-width="2" fill="none" marker-end="url(#SvgjsMarker1014)"></path></g><g id="SvgjsG1016" transform="translate(79.38983242753613,25.00491718426504)"><path id="SvgjsPath1017" d="M 0 0L 78 0L 78 26.043478260869534L 0 26.043478260869534Z" stroke="none" fill="none"></path><g id="SvgjsG1018"><text id="SvgjsText1019" font-family="微软雅黑" text-anchor="middle" font-size="18px" width="78px" fill="#323232" font-weight="400" align="middle" lineHeight="125%" anchor="middle" family="微软雅黑" size="18px" weight="400" font-style="" opacity="1" y="-2.728260869565233" transform="rotate(0)"><tspan id="SvgjsTspan1020" dy="22" x="39"><tspan id="SvgjsTspan1021" style="text-decoration:;">客户端</tspan></tspan></text></g></g><g id="SvgjsG1022" transform="translate(514.8898324275364,38.91796066252596)"><path id="SvgjsPath1023" d="M 0 0L 78 0L 78 33L 0 33Z" stroke="none" fill="none"></path><g id="SvgjsG1024"><text id="SvgjsText1025" font-family="微软雅黑" text-anchor="middle" font-size="18px" width="78px" fill="#323232" font-weight="400" align="middle" lineHeight="125%" anchor="middle" family="微软雅黑" size="18px" weight="400" font-style="" opacity="1" y="0.75" transform="rotate(0)"><tspan id="SvgjsTspan1026" dy="22" x="39"><tspan id="SvgjsTspan1027" style="text-decoration:;">服务器</tspan></tspan></text></g></g><g id="SvgjsG1028"><path id="SvgjsPath1029" d="M149.8246150362321 267.7440476190477L328.737658514493 267.7440476190477L328.737658514493 267.7440476190477L507.65070199275385 267.7440476190477" stroke-dasharray="8,5" stroke="#323232" stroke-width="2" fill="none"></path></g><g id="SvgjsG1030"><path id="SvgjsPath1031" d="M150.8246150362321 121.48317805383027C 290.0246150362319 126.68317805383026 359.62461503623183 129.28317805383028 498.8246150362319 134.48317805383027" stroke="#323232" stroke-width="2" fill="none" marker-end="url(#SvgjsMarker1032)"></path></g><g id="SvgjsG1034" transform="translate(144.34635416666686,75.35274327122164)"><path id="SvgjsPath1035" d="M 0 0L 170 0L 170 41L 0 41Z" stroke="none" fill="none"></path><g id="SvgjsG1036"><text id="SvgjsText1037" font-family="微软雅黑" text-anchor="middle" font-size="16px" width="170px" fill="#323232" font-weight="400" align="middle" lineHeight="125%" anchor="middle" family="微软雅黑" size="16px" weight="400" font-style="" opacity="1" y="-3.5" transform="rotate(0)"><tspan id="SvgjsTspan1038" dy="20" x="85"><tspan id="SvgjsTspan1039" style="text-decoration:;">请求</tspan></tspan><tspan id="SvgjsTspan1040" dy="20" x="85"><tspan id="SvgjsTspan1041" style="text-decoration:;">Upgrade: websocket</tspan></tspan></text></g></g><g id="SvgjsG1042" transform="translate(339.49852807971047,137.57013457556928)"><path id="SvgjsPath1043" d="M 0 0L 178.86956521739114 0L 178.86956521739114 50.47826086956536L 0 50.47826086956536Z" stroke="none" fill="none"></path><g id="SvgjsG1044"><text id="SvgjsText1045" font-family="微软雅黑" text-anchor="middle" font-size="16px" width="179px" fill="#323232" font-weight="400" align="middle" lineHeight="125%" anchor="middle" family="微软雅黑" size="16px" weight="400" font-style="" opacity="1" y="1.2391304347826804" transform="rotate(0)"><tspan id="SvgjsTspan1046" dy="20" x="89.5"><tspan id="SvgjsTspan1047" style="text-decoration:;">响应</tspan></tspan><tspan id="SvgjsTspan1048" dy="20" x="89.5"><tspan id="SvgjsTspan1049" style="text-decoration:;">101 Switching Protocols</tspan></tspan></text></g></g><g id="SvgjsG1050" transform="translate(382.34635416666686,398.87448240165656)"><path id="SvgjsPath1051" d="M 0 0L 78 0L 78 33L 0 33Z" stroke="none" fill="none"></path><g id="SvgjsG1052"><text id="SvgjsText1053" font-family="微软雅黑" text-anchor="middle" font-size="16px" width="78px" fill="#323232" font-weight="400" align="middle" lineHeight="125%" anchor="middle" family="微软雅黑" size="16px" weight="400" font-style="" opacity="1" y="2.5" transform="rotate(0)"><tspan id="SvgjsTspan1054" dy="20" x="39"><tspan id="SvgjsTspan1055" style="text-decoration:;">发送数据</tspan></tspan></text></g></g><g id="SvgjsG1056" transform="translate(168.7811367753622,277.2223084886128)"><path id="SvgjsPath1057" d="M 0 0L 92 0L 92 33L 0 33Z" stroke="none" fill="none"></path><g id="SvgjsG1058"><text id="SvgjsText1059" font-family="微软雅黑" text-anchor="middle" font-size="16px" width="92px" fill="#323232" font-weight="400" align="middle" lineHeight="125%" anchor="middle" family="微软雅黑" size="16px" weight="400" font-style="" opacity="1" y="2.5" transform="rotate(0)"><tspan id="SvgjsTspan1060" dy="20" x="46"><tspan id="SvgjsTspan1061" style="text-decoration:;">发送数据</tspan></tspan></text></g></g><g id="SvgjsG1062" transform="translate(375.34635416666686,334.2223084886128)"><path id="SvgjsPath1063" d="M 0 0L 92 0L 92 33L 0 33Z" stroke="none" fill="none"></path><g id="SvgjsG1064"><text id="SvgjsText1065" font-family="微软雅黑" text-anchor="middle" font-size="16px" width="92px" fill="#323232" font-weight="400" align="middle" lineHeight="125%" anchor="middle" family="微软雅黑" size="16px" weight="400" font-style="" opacity="1" y="2.5" transform="rotate(0)"><tspan id="SvgjsTspan1066" dy="20" x="46"><tspan id="SvgjsTspan1067" style="text-decoration:;">发送数据</tspan></tspan></text></g></g><g id="SvgjsG1068" transform="translate(521.8463541666667,92.74404761904768)"><path id="SvgjsPath1069" d="M 0 0L 157 0L 157 62L 0 62Z" stroke="none" fill="none"></path><g id="SvgjsG1070"><text id="SvgjsText1071" font-family="微软雅黑" text-anchor="middle" font-size="16px" width="157px" fill="#323232" font-weight="400" align="middle" lineHeight="125%" anchor="middle" family="微软雅黑" size="16px" weight="400" font-style="" opacity="1" y="-3" transform="rotate(0)"><tspan id="SvgjsTspan1072" dy="20" x="78.5"><tspan id="SvgjsTspan1073" style="text-decoration:;">连接刚开始还是HTTP</tspan></tspan><tspan id="SvgjsTspan1074" dy="20" x="78.5"><tspan id="SvgjsTspan1075" style="text-decoration:;">协议，所以由客户端</tspan></tspan><tspan id="SvgjsTspan1076" dy="20" x="78.5"><tspan id="SvgjsTspan1077" style="text-decoration:;">先发起连接</tspan></tspan></text></g></g><g id="SvgjsG1078" transform="translate(521.8463541666669,205.30926501035208)"><path id="SvgjsPath1079" d="M 0 31C 0 -10.333333333333334 157 -10.333333333333334 157 31Q 153.85999999999999 60.76 78.5 62Q 52.333333333333336 62 26.166666666666668 55.800000000000004L 0 62L 18.369 53.134Q 0 43.4 0 31" stroke="rgba(50,50,50,1)" stroke-width="2" fill-opacity="1" fill="#ffffff"></path><g id="SvgjsG1080"><text id="SvgjsText1081" font-family="微软雅黑" text-anchor="middle" font-size="16px" width="137px" fill="#323232" font-weight="400" align="middle" lineHeight="125%" anchor="middle" family="微软雅黑" size="16px" weight="400" font-style="" opacity="1" y="7" transform="rotate(0)"><tspan id="SvgjsTspan1082" dy="20" x="78.5"><tspan id="SvgjsTspan1083" style="text-decoration:;">切换为 websocket </tspan></tspan><tspan id="SvgjsTspan1084" dy="20" x="78.5"><tspan id="SvgjsTspan1085" style="text-decoration:;">协议</tspan></tspan></text></g></g><g id="SvgjsG1086" transform="translate(24.99852807970997,360.439699792961)"><path id="SvgjsPath1087" d="M 0 0L 92 0L 92 33L 0 33Z" stroke="none" fill="none"></path><g id="SvgjsG1088"><text id="SvgjsText1089" font-family="微软雅黑" text-anchor="middle" font-size="16px" width="92px" fill="#323232" font-weight="400" align="middle" lineHeight="125%" anchor="middle" family="微软雅黑" size="16px" weight="400" font-style="" opacity="1" y="2.5" transform="rotate(0)"><tspan id="SvgjsTspan1090" dy="20" x="46"><tspan id="SvgjsTspan1091" style="text-decoration:;">WebSocket</tspan></tspan></text></g></g><g id="SvgjsG1092" transform="translate(53.30287590579766,155.04839544513464)"><path id="SvgjsPath1093" d="M 0 0L 59 0L 59 33L 0 33Z" stroke="none" fill="none"></path><g id="SvgjsG1094"><text id="SvgjsText1095" font-family="微软雅黑" text-anchor="middle" font-size="16px" width="59px" fill="#323232" font-weight="400" align="middle" lineHeight="125%" anchor="middle" family="微软雅黑" size="16px" weight="400" font-style="" opacity="1" y="2.5" transform="rotate(0)"><tspan id="SvgjsTspan1096" dy="20" x="29.5"><tspan id="SvgjsTspan1097" style="text-decoration:;">HTTP</tspan></tspan></text></g></g><g id="SvgjsG1098"><path id="SvgjsPath1099" d="M507.43331068840564 192.43969979296077C 364.6333106884057 198.83969979296074 293.2333106884056 202.0396997929608 150.43331068840604 208.43969979296077" stroke="#323232" stroke-width="2" fill="none" marker-end="url(#SvgjsMarker1100)"></path></g><g id="SvgjsG1102"><path id="SvgjsPath1103" d="M89.8246150362321 78.00491718426505L116.34635416666691 78.00491718426505L116.34635416666691 78.00491718426505L142.86809329710172 78.00491718426505" stroke="#323232" stroke-width="2" fill="none"></path></g><g id="SvgjsG1104"><path id="SvgjsPath1105" d="M115.04200634058037 263.22230848861295L115.04200634058037 175.3962215320912L115.04200634058037 175.3962215320912L115.04200634058037 87.57013457556951" stroke="#323232" stroke-width="2" fill="none" marker-start="url(#SvgjsMarker1106)" marker-end="url(#SvgjsMarker1108)"></path></g><g id="SvgjsG1110"><path id="SvgjsPath1111" d="M115.9115715579706 475.3962215320912L115.9115715579706 376.26578674948246L115.9115715579706 376.26578674948246L115.9115715579706 277.1353519668737" stroke="#323232" stroke-width="2" fill="none" marker-start="url(#SvgjsMarker1112)" marker-end="url(#SvgjsMarker1114)"></path></g><g id="SvgjsG1116"><path id="SvgjsPath1117" d="M149.08548460144942 305.8310041407867C 288.2854846014495 311.0310041407867 357.88548460144943 313.63100414078673 497.0854846014495 318.8310041407867" stroke="#323232" stroke-width="2" fill="none" marker-end="url(#SvgjsMarker1118)"></path></g><g id="SvgjsG1120"><path id="SvgjsPath1121" d="M507.4333106884068 360.26578674948325C 364.63331068840694 366.66578674948346 293.2333106884066 369.8657867494837 150.4333106884058 376.2657867494837" stroke="#323232" stroke-width="2" fill="none" marker-end="url(#SvgjsMarker1122)"></path></g><g id="SvgjsG1124"><path id="SvgjsPath1125" d="M507.43331068840587 424.6136128364393C 364.6333106884059 431.0136128364393 293.2333106884058 434.2136128364393 150.43331068840615 440.6136128364393" stroke="#323232" stroke-width="2" fill="none" marker-end="url(#SvgjsMarker1126)"></path></g></svg>