<svg id="SvgjsSvg1086" width="819" height="232" xmlns="http://www.w3.org/2000/svg" version="1.1" xmlns:xlink="http://www.w3.org/1999/xlink" xmlns:svgjs="http://svgjs.com/svgjs"><defs id="SvgjsDefs1087"></defs><g id="SvgjsG1088" transform="translate(556,73)"><path id="SvgjsPath1089" d="M 0 44.5C 0 -14.833333333333334 238 -14.833333333333334 238 44.5C 238 103.83333333333333 0 103.83333333333333 0 44.5Z" stroke="rgba(50,50,50,1)" stroke-width="2" fill-opacity="1" fill="#ffffff"></path><g id="SvgjsG1090"><text id="SvgjsText1091" font-family="微软雅黑" text-anchor="middle" font-size="13px" width="218px" fill="#323232" font-weight="400" align="middle" lineHeight="125%" anchor="middle" family="微软雅黑" size="13px" weight="400" font-style="" opacity="1" y="33.875" transform="rotate(0)"><tspan id="SvgjsTspan1092" dy="16" x="119"><tspan id="SvgjsTspan1093" style="text-decoration:;"> </tspan></tspan></text></g></g><g id="SvgjsG1094" transform="translate(25,76)"><path id="SvgjsPath1095" d="M 0 41.5C 0 -13.833333333333334 186 -13.833333333333334 186 41.5C 186 96.83333333333333 0 96.83333333333333 0 41.5Z" stroke="rgba(50,50,50,1)" stroke-width="2" fill-opacity="1" fill="#ffffff"></path><g id="SvgjsG1096"><text id="SvgjsText1097" font-family="微软雅黑" text-anchor="middle" font-size="13px" width="166px" fill="#323232" font-weight="400" align="middle" lineHeight="125%" anchor="middle" family="微软雅黑" size="13px" weight="400" font-style="" opacity="1" y="30.875" transform="rotate(0)"><tspan id="SvgjsTspan1098" dy="16" x="93"><tspan id="SvgjsTspan1099" style="text-decoration:;"> </tspan></tspan></text></g></g><g id="SvgjsG1100" transform="translate(76.5,25)"><path id="SvgjsPath1101" d="M 0 13.222222222222221L 73.77777777777777 13.222222222222221L 73.77777777777777 119L 0 119L 0 13.222222222222221Z" stroke="rgba(50,50,50,1)" stroke-width="2" fill-opacity="1" fill="#ffffff"></path><path id="SvgjsPath1102" d="M 0 13.222222222222221L 9.222222222222221 0L 83 0L 83 105.77777777777777L 73.77777777777777 119L 73.77777777777777 13.222222222222221L 0 13.222222222222221ZM 73.77777777777777 13.222222222222221L 83 0" stroke="rgba(50,50,50,1)" stroke-width="2" fill-opacity="1" fill="#e6e6e6"></path><path id="SvgjsPath1103" d="M 0 0L 83 0L 83 119L 0 119Z" stroke="none" fill="none"></path><g id="SvgjsG1104"><text id="SvgjsText1105" font-family="微软雅黑" text-anchor="middle" font-size="16px" width="54px" fill="#323232" font-weight="400" align="middle" lineHeight="125%" anchor="middle" family="微软雅黑" size="16px" weight="400" font-style="" opacity="1" y="42.11111111111111" transform="rotate(0)"><tspan id="SvgjsTspan1106" dy="20" x="37"><tspan id="SvgjsTspan1107" style="text-decoration:;">Web服</tspan></tspan><tspan id="SvgjsTspan1108" dy="20" x="37"><tspan id="SvgjsTspan1109" style="text-decoration:;">务器</tspan></tspan></text></g></g><g id="SvgjsG1110" transform="translate(575,25)"><path id="SvgjsPath1111" d="M 0 13.222222222222221L 69.33333333333333 13.222222222222221L 69.33333333333333 119L 0 119L 0 13.222222222222221Z" stroke="rgba(50,50,50,1)" stroke-width="2" fill-opacity="1" fill="#ffffff"></path><path id="SvgjsPath1112" d="M 0 13.222222222222221L 8.666666666666666 0L 78 0L 78 105.77777777777777L 69.33333333333333 119L 69.33333333333333 13.222222222222221L 0 13.222222222222221ZM 69.33333333333333 13.222222222222221L 78 0" stroke="rgba(50,50,50,1)" stroke-width="2" fill-opacity="1" fill="#e6e6e6"></path><path id="SvgjsPath1113" d="M 0 0L 78 0L 78 119L 0 119Z" stroke="none" fill="none"></path><g id="SvgjsG1114"><text id="SvgjsText1115" font-family="微软雅黑" text-anchor="middle" font-size="16px" width="50px" fill="#323232" font-weight="400" align="middle" lineHeight="125%" anchor="middle" family="微软雅黑" size="16px" weight="400" font-style="" opacity="1" y="42.11111111111111" transform="rotate(0)"><tspan id="SvgjsTspan1116" dy="20" x="35"><tspan id="SvgjsTspan1117" style="text-decoration:;">缓存服</tspan></tspan><tspan id="SvgjsTspan1118" dy="20" x="35"><tspan id="SvgjsTspan1119" style="text-decoration:;">务器</tspan></tspan></text></g></g><g id="SvgjsG1120" transform="translate(301,86.25)"><path id="SvgjsPath1121" d="M 19.2 43.75C -16 31.25 6.4 21.875 14.399999999999999 18.75C 11.200000000000001 3.125 51.2 0 67.2 6.25C 80 -3.125 120 0 120 9.375C 152 6.25 164.8 18.75 152 34.375C 163.2 46.875 152 62.5 115.19999999999999 56.25C 107.2 64.375 75.19999999999999 64.375 67.2 56.25C 51.2 62.5 19.2 59.375 19.2 43.75Z" stroke="rgba(50,50,50,1)" stroke-width="2" fill-opacity="1" fill="#2196f3"></path><g id="SvgjsG1122"><text id="SvgjsText1123" font-family="微软雅黑" text-anchor="middle" font-size="16px" width="140px" fill="#ffffff" font-weight="400" align="middle" lineHeight="125%" anchor="middle" family="微软雅黑" size="16px" weight="400" font-style="" opacity="1" y="17.25" transform="rotate(0)"><tspan id="SvgjsTspan1124" dy="20" x="80"><tspan id="SvgjsTspan1125" style="text-decoration:;">互联网</tspan></tspan></text></g></g><g id="SvgjsG1126" transform="translate(695,25)"><path id="SvgjsPath1127" d="M 0 13.222222222222221L 69.33333333333333 13.222222222222221L 69.33333333333333 119L 0 119L 0 13.222222222222221Z" stroke="rgba(50,50,50,1)" stroke-width="2" fill-opacity="1" fill="#ffffff"></path><path id="SvgjsPath1128" d="M 0 13.222222222222221L 8.666666666666666 0L 78 0L 78 105.77777777777777L 69.33333333333333 119L 69.33333333333333 13.222222222222221L 0 13.222222222222221ZM 69.33333333333333 13.222222222222221L 78 0" stroke="rgba(50,50,50,1)" stroke-width="2" fill-opacity="1" fill="#e6e6e6"></path><path id="SvgjsPath1129" d="M 0 0L 78 0L 78 119L 0 119Z" stroke="none" fill="none"></path><g id="SvgjsG1130"><text id="SvgjsText1131" font-family="微软雅黑" text-anchor="middle" font-size="16px" width="50px" fill="#323232" font-weight="400" align="middle" lineHeight="125%" anchor="middle" family="微软雅黑" size="16px" weight="400" font-style="" opacity="1" y="52.11111111111111" transform="rotate(0)"><tspan id="SvgjsTspan1132" dy="20" x="35"><tspan id="SvgjsTspan1133" style="text-decoration:;">客户端</tspan></tspan></text></g></g><g id="SvgjsG1134" transform="translate(649,83.5)"><path id="SvgjsPath1135" d="M 0 13.5L 13.5 0L 13.5 8.91L 32.5 8.91L 32.5 0L 46 13.5L 32.5 27L 32.5 18.09L 13.5 18.09L 13.5 27L 0 13.5Z" stroke="rgba(255,255,255,1)" stroke-width="2" fill-opacity="1" fill="#4dd0e1"></path><g id="SvgjsG1136"><text id="SvgjsText1137" font-family="微软雅黑" text-anchor="middle" font-size="13px" width="46px" fill="#323232" font-weight="400" align="middle" lineHeight="125%" anchor="middle" family="微软雅黑" size="13px" weight="400" font-style="" opacity="1" y="2.875000000000001" transform="rotate(0)"></text></g></g><g id="SvgjsG1138" transform="translate(215,91)"><path id="SvgjsPath1139" d="M 0 26.5L 26.5 0L 26.5 17.490000000000002L 83 17.490000000000002L 83 35.510000000000005L 26.5 35.510000000000005L 26.5 53L 0 26.5Z" stroke="rgba(255,255,255,1)" stroke-width="2" fill-opacity="1" fill="#4dd0e1"></path><g id="SvgjsG1140"><text id="SvgjsText1141" font-family="微软雅黑" text-anchor="middle" font-size="13px" width="83px" fill="#323232" font-weight="400" align="middle" lineHeight="125%" anchor="middle" family="微软雅黑" size="13px" weight="400" font-style="" opacity="1" y="15.875" transform="rotate(0)"></text></g></g><g id="SvgjsG1142" transform="matrix(-1,1.2246467991473532e-16,-1.2246467991473532e-16,-1,548,144)"><path id="SvgjsPath1143" d="M 0 26.5L 26.5 0L 26.5 17.490000000000002L 88.5 17.490000000000002L 88.5 35.510000000000005L 26.5 35.510000000000005L 26.5 53L 0 26.5Z" stroke="rgba(255,255,255,1)" stroke-width="2" fill-opacity="1" fill="#4dd0e1"></path><g id="SvgjsG1144"><text id="SvgjsText1145" font-family="微软雅黑" text-anchor="middle" font-size="13px" width="89px" fill="#323232" font-weight="400" align="middle" lineHeight="125%" anchor="middle" family="微软雅黑" size="13px" weight="400" font-style="" opacity="1" y="15.875" transform="rotate(0)"></text></g></g><g id="SvgjsG1146" transform="translate(58,166)"><path id="SvgjsPath1147" d="M 0 0L 120 0L 120 41L 0 41Z" stroke="none" fill="none"></path><g id="SvgjsG1148"><text id="SvgjsText1149" font-family="微软雅黑" text-anchor="middle" font-size="15px" width="120px" fill="#323232" font-weight="400" align="middle" lineHeight="125%" anchor="middle" family="微软雅黑" size="15px" weight="400" font-style="" opacity="1" y="8.125" transform="rotate(0)"><tspan id="SvgjsTspan1150" dy="18" x="60"><tspan id="SvgjsTspan1151" style="text-decoration:;">服务器端局域网</tspan></tspan></text></g></g><g id="SvgjsG1152" transform="translate(615,166)"><path id="SvgjsPath1153" d="M 0 0L 120 0L 120 41L 0 41Z" stroke="none" fill="none"></path><g id="SvgjsG1154"><text id="SvgjsText1155" font-family="微软雅黑" text-anchor="middle" font-size="15px" width="120px" fill="#323232" font-weight="400" align="middle" lineHeight="125%" anchor="middle" family="微软雅黑" size="15px" weight="400" font-style="" opacity="1" y="8.125" transform="rotate(0)"><tspan id="SvgjsTspan1156" dy="18" x="60"><tspan id="SvgjsTspan1157" style="text-decoration:;">客户端局域网</tspan></tspan></text></g></g><g id="SvgjsG1158" transform="translate(288,148.5)"><path id="SvgjsPath1159" d="M 0 0L 170 0L 186 16L 186 41L 0 41L 0 0Z" stroke="none" fill-opacity="1" fill="#ffffaa"></path><path id="SvgjsPath1160" d="M 170 0L 170 16L 186 16Z" stroke="none" fill-opacity="1" fill="#cdcdcd"></path><path id="SvgjsPath1161" d="M 0 0L 170 0L 186 16L 186 41L 0 41L 0 0Z" stroke="none" fill="none"></path><g id="SvgjsG1162"><text id="SvgjsText1163" font-family="微软雅黑" text-anchor="middle" font-size="14px" width="166px" fill="#323232" font-weight="400" align="middle" lineHeight="125%" anchor="middle" family="微软雅黑" size="14px" weight="400" font-style="" opacity="1" y="8.75" transform="rotate(0)"><tspan id="SvgjsTspan1164" dy="17" x="93"><tspan id="SvgjsTspan1165" style="text-decoration:;">流量减少</tspan></tspan></text></g></g></svg>