<svg id="SvgjsSvg1006" width="859" height="258" xmlns="http://www.w3.org/2000/svg" version="1.1" xmlns:xlink="http://www.w3.org/1999/xlink" xmlns:svgjs="http://svgjs.com/svgjs"><defs id="SvgjsDefs1007"></defs><g id="SvgjsG1008" transform="translate(655,61.99999999999997)"><path id="SvgjsPath1009" d="M 0 44.49999999999997C 0 -14.833333333333323 179 -14.833333333333323 179 44.49999999999997C 179 103.83333333333327 0 103.83333333333327 0 44.49999999999997Z" stroke="rgba(50,50,50,1)" stroke-width="2" fill-opacity="1" fill="#ffffff"></path><g id="SvgjsG1010"><text id="SvgjsText1011" font-family="微软雅黑" text-anchor="middle" font-size="13px" width="159px" fill="#323232" font-weight="400" align="middle" lineHeight="125%" anchor="middle" family="微软雅黑" size="13px" weight="400" font-style="" opacity="1" y="33.87499999999997" transform="rotate(0)"><tspan id="SvgjsTspan1012" dy="16" x="89.5"><tspan id="SvgjsTspan1013" style="text-decoration:;"> </tspan></tspan></text></g></g><g id="SvgjsG1014" transform="translate(25,89)"><path id="SvgjsPath1015" d="M 0 49C 0 -16.333333333333332 305 -16.333333333333332 305 49C 305 114.33333333333333 0 114.33333333333333 0 49Z" stroke="rgba(50,50,50,1)" stroke-width="2" fill-opacity="1" fill="#ffffff"></path><g id="SvgjsG1016"><text id="SvgjsText1017" font-family="微软雅黑" text-anchor="middle" font-size="13px" width="285px" fill="#323232" font-weight="400" align="middle" lineHeight="125%" anchor="middle" family="微软雅黑" size="13px" weight="400" font-style="" opacity="1" y="38.375" transform="rotate(0)"><tspan id="SvgjsTspan1018" dy="16" x="152.5"><tspan id="SvgjsTspan1019" style="text-decoration:;"> </tspan></tspan></text></g></g><g id="SvgjsG1020" transform="translate(69,46.5)"><path id="SvgjsPath1021" d="M 0 13.222222222222221L 74.66666666666666 13.222222222222221L 74.66666666666666 119L 0 119L 0 13.222222222222221Z" stroke="rgba(50,50,50,1)" stroke-width="2" fill-opacity="1" fill="#ffffff"></path><path id="SvgjsPath1022" d="M 0 13.222222222222221L 9.333333333333332 0L 84 0L 84 105.77777777777777L 74.66666666666666 119L 74.66666666666666 13.222222222222221L 0 13.222222222222221ZM 74.66666666666666 13.222222222222221L 84 0" stroke="rgba(50,50,50,1)" stroke-width="2" fill-opacity="1" fill="#e6e6e6"></path><path id="SvgjsPath1023" d="M 0 0L 84 0L 84 119L 0 119Z" stroke="none" fill="none"></path><g id="SvgjsG1024"><text id="SvgjsText1025" font-family="微软雅黑" text-anchor="middle" font-size="16px" width="55px" fill="#323232" font-weight="400" align="middle" lineHeight="125%" anchor="middle" family="微软雅黑" size="16px" weight="400" font-style="" opacity="1" y="42.11111111111111" transform="rotate(0)"><tspan id="SvgjsTspan1026" dy="20" x="37.5"><tspan id="SvgjsTspan1027" style="text-decoration:;">Web服</tspan></tspan><tspan id="SvgjsTspan1028" dy="20" x="37.5"><tspan id="SvgjsTspan1029" style="text-decoration:;">务器</tspan></tspan></text></g></g><g id="SvgjsG1030" transform="translate(203,46.5)"><path id="SvgjsPath1031" d="M 0 13.222222222222221L 69.33333333333333 13.222222222222221L 69.33333333333333 119L 0 119L 0 13.222222222222221Z" stroke="rgba(50,50,50,1)" stroke-width="2" fill-opacity="1" fill="#ffffff"></path><path id="SvgjsPath1032" d="M 0 13.222222222222221L 8.666666666666666 0L 78 0L 78 105.77777777777777L 69.33333333333333 119L 69.33333333333333 13.222222222222221L 0 13.222222222222221ZM 69.33333333333333 13.222222222222221L 78 0" stroke="rgba(50,50,50,1)" stroke-width="2" fill-opacity="1" fill="#e6e6e6"></path><path id="SvgjsPath1033" d="M 0 0L 78 0L 78 119L 0 119Z" stroke="none" fill="none"></path><g id="SvgjsG1034"><text id="SvgjsText1035" font-family="微软雅黑" text-anchor="middle" font-size="16px" width="50px" fill="#323232" font-weight="400" align="middle" lineHeight="125%" anchor="middle" family="微软雅黑" size="16px" weight="400" font-style="" opacity="1" y="42.11111111111111" transform="rotate(0)"><tspan id="SvgjsTspan1036" dy="20" x="35"><tspan id="SvgjsTspan1037" style="text-decoration:;">缓存服</tspan></tspan><tspan id="SvgjsTspan1038" dy="20" x="35"><tspan id="SvgjsTspan1039" style="text-decoration:;">务器</tspan></tspan></text></g></g><g id="SvgjsG1040" transform="translate(390,74.75)"><path id="SvgjsPath1041" d="M 19.2 43.75C -16 31.25 6.4 21.875 14.399999999999999 18.75C 11.200000000000001 3.125 51.2 0 67.2 6.25C 80 -3.125 120 0 120 9.375C 152 6.25 164.8 18.75 152 34.375C 163.2 46.875 152 62.5 115.19999999999999 56.25C 107.2 64.375 75.19999999999999 64.375 67.2 56.25C 51.2 62.5 19.2 59.375 19.2 43.75Z" stroke="rgba(50,50,50,1)" stroke-width="2" fill-opacity="1" fill="#2196f3"></path><g id="SvgjsG1042"><text id="SvgjsText1043" font-family="微软雅黑" text-anchor="middle" font-size="16px" width="140px" fill="#ffffff" font-weight="400" align="middle" lineHeight="125%" anchor="middle" family="微软雅黑" size="16px" weight="400" font-style="" opacity="1" y="17.25" transform="rotate(0)"><tspan id="SvgjsTspan1044" dy="20" x="80"><tspan id="SvgjsTspan1045" style="text-decoration:;">互联网</tspan></tspan></text></g></g><g id="SvgjsG1046" transform="translate(699,25)"><path id="SvgjsPath1047" d="M 0 13.222222222222221L 69.33333333333333 13.222222222222221L 69.33333333333333 119L 0 119L 0 13.222222222222221Z" stroke="rgba(50,50,50,1)" stroke-width="2" fill-opacity="1" fill="#ffffff"></path><path id="SvgjsPath1048" d="M 0 13.222222222222221L 8.666666666666666 0L 78 0L 78 105.77777777777777L 69.33333333333333 119L 69.33333333333333 13.222222222222221L 0 13.222222222222221ZM 69.33333333333333 13.222222222222221L 78 0" stroke="rgba(50,50,50,1)" stroke-width="2" fill-opacity="1" fill="#e6e6e6"></path><path id="SvgjsPath1049" d="M 0 0L 78 0L 78 119L 0 119Z" stroke="none" fill="none"></path><g id="SvgjsG1050"><text id="SvgjsText1051" font-family="微软雅黑" text-anchor="middle" font-size="16px" width="50px" fill="#323232" font-weight="400" align="middle" lineHeight="125%" anchor="middle" family="微软雅黑" size="16px" weight="400" font-style="" opacity="1" y="52.11111111111111" transform="rotate(0)"><tspan id="SvgjsTspan1052" dy="20" x="35"><tspan id="SvgjsTspan1053" style="text-decoration:;">客户端</tspan></tspan></text></g></g><g id="SvgjsG1054" transform="translate(155,98.5)"><path id="SvgjsPath1055" d="M 0 13.5L 13.5 0L 13.5 8.91L 32.5 8.91L 32.5 0L 46 13.5L 32.5 27L 32.5 18.09L 13.5 18.09L 13.5 27L 0 13.5Z" stroke="rgba(255,255,255,1)" stroke-width="2" fill-opacity="1" fill="#4dd0e1"></path><g id="SvgjsG1056"><text id="SvgjsText1057" font-family="微软雅黑" text-anchor="middle" font-size="13px" width="46px" fill="#323232" font-weight="400" align="middle" lineHeight="125%" anchor="middle" family="微软雅黑" size="13px" weight="400" font-style="" opacity="1" y="2.875000000000001" transform="rotate(0)"></text></g></g><g id="SvgjsG1058" transform="translate(285.5,80)"><path id="SvgjsPath1059" d="M 0 26L 26 0L 26 17.16L 100 17.16L 100 34.84L 26 34.84L 26 52L 0 26Z" stroke="rgba(255,255,255,1)" stroke-width="2" fill-opacity="1" fill="#4dd0e1"></path><g id="SvgjsG1060"><text id="SvgjsText1061" font-family="微软雅黑" text-anchor="middle" font-size="13px" width="100px" fill="#323232" font-weight="400" align="middle" lineHeight="125%" anchor="middle" family="微软雅黑" size="13px" weight="400" font-style="" opacity="1" y="15.375" transform="rotate(0)"></text></g></g><g id="SvgjsG1062" transform="matrix(-1,1.2246467991473532e-16,-1.2246467991473532e-16,-1,648.5,132)"><path id="SvgjsPath1063" d="M 0 26L 26 0L 26 17.16L 100 17.16L 100 34.84L 26 34.84L 26 52L 0 26Z" stroke="rgba(255,255,255,1)" stroke-width="2" fill-opacity="1" fill="#4dd0e1"></path><g id="SvgjsG1064"><text id="SvgjsText1065" font-family="微软雅黑" text-anchor="middle" font-size="13px" width="100px" fill="#323232" font-weight="400" align="middle" lineHeight="125%" anchor="middle" family="微软雅黑" size="13px" weight="400" font-style="" opacity="1" y="15.375" transform="rotate(0)"></text></g></g><g id="SvgjsG1066" transform="translate(118,192)"><path id="SvgjsPath1067" d="M 0 0L 120 0L 120 41L 0 41Z" stroke="none" fill="none"></path><g id="SvgjsG1068"><text id="SvgjsText1069" font-family="微软雅黑" text-anchor="middle" font-size="15px" width="120px" fill="#323232" font-weight="400" align="middle" lineHeight="125%" anchor="middle" family="微软雅黑" size="15px" weight="400" font-style="" opacity="1" y="8.125" transform="rotate(0)"><tspan id="SvgjsTspan1070" dy="18" x="60"><tspan id="SvgjsTspan1071" style="text-decoration:;">服务器端局域网</tspan></tspan></text></g></g><g id="SvgjsG1072" transform="translate(678,152)"><path id="SvgjsPath1073" d="M 0 0L 120 0L 120 41L 0 41Z" stroke="none" fill="none"></path><g id="SvgjsG1074"><text id="SvgjsText1075" font-family="微软雅黑" text-anchor="middle" font-size="15px" width="120px" fill="#323232" font-weight="400" align="middle" lineHeight="125%" anchor="middle" family="微软雅黑" size="15px" weight="400" font-style="" opacity="1" y="8.125" transform="rotate(0)"><tspan id="SvgjsTspan1076" dy="18" x="60"><tspan id="SvgjsTspan1077" style="text-decoration:;">客户端局域网</tspan></tspan></text></g></g><g id="SvgjsG1078" transform="translate(396,138.5)"><path id="SvgjsPath1079" d="M 0 0L 168 0L 184 16L 184 41L 0 41L 0 0Z" stroke="none" fill-opacity="1" fill="#ffffaa"></path><path id="SvgjsPath1080" d="M 168 0L 168 16L 184 16Z" stroke="none" fill-opacity="1" fill="#cdcdcd"></path><path id="SvgjsPath1081" d="M 0 0L 168 0L 184 16L 184 41L 0 41L 0 0Z" stroke="none" fill="none"></path><g id="SvgjsG1082"><text id="SvgjsText1083" font-family="微软雅黑" text-anchor="middle" font-size="14px" width="164px" fill="#323232" font-weight="400" align="middle" lineHeight="125%" anchor="middle" family="微软雅黑" size="14px" weight="400" font-style="" opacity="1" y="8.75" transform="rotate(0)"><tspan id="SvgjsTspan1084" dy="17" x="92"><tspan id="SvgjsTspan1085" style="text-decoration:;">流量不会减少</tspan></tspan></text></g></g></svg>