<svg id="SvgjsSvg1006" width="586.171875" height="626.3359375" xmlns="http://www.w3.org/2000/svg" version="1.1" xmlns:xlink="http://www.w3.org/1999/xlink" xmlns:svgjs="http://svgjs.com/svgjs"><defs id="SvgjsDefs1007"></defs><g id="SvgjsG1008" transform="translate(100.671875,73.3359375)"><path id="SvgjsPath1009" d="M 0 14L 14 0L 14 9.24L 342 9.24L 342 18.76L 14 18.76L 14 28L 0 14Z" stroke="rgba(255,255,255,1)" stroke-width="2" fill-opacity="1" fill="#1976d2"></path><g id="SvgjsG1010"><text id="SvgjsText1011" font-family="微软雅黑" text-anchor="middle" font-size="14px" width="342px" fill="#323232" font-weight="400" align="middle" lineHeight="125%" anchor="middle" family="微软雅黑" size="14px" weight="400" font-style="" opacity="1" y="2.250000000000001" transform="rotate(0)"></text></g></g><g id="SvgjsG1012" transform="translate(151.671875,73.3359375)"><path id="SvgjsPath1013" d="M 0 0L 150 0L 150 28L 0 28Z" stroke="rgba(25,118,210,1)" stroke-width="3" fill-opacity="1" fill="#ffffff"></path><g id="SvgjsG1014"><text id="SvgjsText1015" font-family="微软雅黑" text-anchor="middle" font-size="14px" width="130px" fill="#323232" font-weight="400" align="middle" lineHeight="125%" anchor="middle" family="微软雅黑" size="14px" weight="400" font-style="" opacity="1" y="2.25" transform="rotate(0)"><tspan id="SvgjsTspan1016" dy="17" x="75"><tspan id="SvgjsTspan1017" style="text-decoration:;">SYN:1，序号初始值</tspan></tspan></text></g></g><g id="SvgjsG1018" transform="translate(108.29687500000011,25.002604166666615)"><path id="SvgjsPath1019" d="M 0 0L 247.54166666666657 0L 247.54166666666657 25.66666666666673L 0 25.66666666666673Z" stroke="none" fill="none"></path><g id="SvgjsG1020"><text id="SvgjsText1021" font-family="微软雅黑" text-anchor="middle" font-size="14px" width="248px" fill="#323232" font-weight="400" align="middle" lineHeight="125%" anchor="middle" family="微软雅黑" size="14px" weight="400" font-style="" opacity="1" y="1.0833333333333641" transform="rotate(0)"><tspan id="SvgjsTspan1022" dy="17" x="124"><tspan id="SvgjsTspan1023" style="text-decoration:;">备注：创建套接字阶段中不传输网络包</tspan></tspan></text></g></g><g id="SvgjsG1024" transform="translate(323.671875,73.3359375)"><path id="SvgjsPath1025" d="M 0 0L 90 0L 90 28L 0 28Z" stroke="rgba(25,118,210,1)" stroke-width="3" fill-opacity="1" fill="#ffffff"></path><g id="SvgjsG1026"><text id="SvgjsText1027" font-family="微软雅黑" text-anchor="middle" font-size="14px" width="70px" fill="#323232" font-weight="400" align="middle" lineHeight="125%" anchor="middle" family="微软雅黑" size="14px" weight="400" font-style="" opacity="1" y="2.25" transform="rotate(0)"><tspan id="SvgjsTspan1028" dy="17" x="45"><tspan id="SvgjsTspan1029" style="text-decoration:;">窗口</tspan></tspan></text></g></g><g id="SvgjsG1030" transform="matrix(-1,1.2246467991473532e-16,-1.2246467991473532e-16,-1,442.671875,139.33593749999997)"><path id="SvgjsPath1031" d="M 0 14L 14 0L 14 9.24L 342 9.24L 342 18.76L 14 18.76L 14 28L 0 14Z" stroke="rgba(255,255,255,1)" stroke-width="2" fill-opacity="1" fill="#4dd0e1"></path><g id="SvgjsG1032"><text id="SvgjsText1033" font-family="微软雅黑" text-anchor="middle" font-size="14px" width="342px" fill="#323232" font-weight="400" align="middle" lineHeight="125%" anchor="middle" family="微软雅黑" size="14px" weight="400" font-style="" opacity="1" y="2.250000000000001" transform="rotate(0)"></text></g></g><g id="SvgjsG1034" transform="translate(151.671875,111.3359375)"><path id="SvgjsPath1035" d="M 0 0L 107 0L 107 28L 0 28Z" stroke="rgba(77,208,225,1)" stroke-width="3" fill-opacity="1" fill="#ffffff"></path><g id="SvgjsG1036"><text id="SvgjsText1037" font-family="微软雅黑" text-anchor="middle" font-size="14px" width="87px" fill="#323232" font-weight="400" align="middle" lineHeight="125%" anchor="middle" family="微软雅黑" size="14px" weight="400" font-style="" opacity="1" y="2.25" transform="rotate(0)"><tspan id="SvgjsTspan1038" dy="17" x="53.5"><tspan id="SvgjsTspan1039" style="text-decoration:;">ACK号，窗口</tspan></tspan></text></g></g><g id="SvgjsG1040" transform="translate(278.671875,111.3359375)"><path id="SvgjsPath1041" d="M 0 0L 143 0L 143 28L 0 28Z" stroke="rgba(77,208,225,1)" stroke-width="3" fill-opacity="1" fill="#ffffff"></path><g id="SvgjsG1042"><text id="SvgjsText1043" font-family="微软雅黑" text-anchor="middle" font-size="14px" width="123px" fill="#323232" font-weight="400" align="middle" lineHeight="125%" anchor="middle" family="微软雅黑" size="14px" weight="400" font-style="" opacity="1" y="2.25" transform="rotate(0)"><tspan id="SvgjsTspan1044" dy="17" x="71.5"><tspan id="SvgjsTspan1045" style="text-decoration:;">SYN:1，序号初始值</tspan></tspan></text></g></g><g id="SvgjsG1046" transform="translate(100.671875,154.3359375)"><path id="SvgjsPath1047" d="M 0 14L 14 0L 14 9.24L 342 9.24L 342 18.76L 14 18.76L 14 28L 0 14Z" stroke="rgba(255,255,255,1)" stroke-width="2" fill-opacity="1" fill="#1976d2"></path><g id="SvgjsG1048"><text id="SvgjsText1049" font-family="微软雅黑" text-anchor="middle" font-size="14px" width="342px" fill="#323232" font-weight="400" align="middle" lineHeight="125%" anchor="middle" family="微软雅黑" size="14px" weight="400" font-style="" opacity="1" y="2.250000000000001" transform="rotate(0)"></text></g></g><g id="SvgjsG1050" transform="translate(226.671875,154.3359375)"><path id="SvgjsPath1051" d="M 0 0L 90 0L 90 28L 0 28Z" stroke="rgba(25,118,210,1)" stroke-width="3" fill-opacity="1" fill="#ffffff"></path><g id="SvgjsG1052"><text id="SvgjsText1053" font-family="微软雅黑" text-anchor="middle" font-size="14px" width="70px" fill="#323232" font-weight="400" align="middle" lineHeight="125%" anchor="middle" family="微软雅黑" size="14px" weight="400" font-style="" opacity="1" y="2.25" transform="rotate(0)"><tspan id="SvgjsTspan1054" dy="17" x="45"><tspan id="SvgjsTspan1055" style="text-decoration:;">ACK号</tspan></tspan></text></g></g><g id="SvgjsG1056" transform="translate(105.671875,497.3359375)"><path id="SvgjsPath1057" d="M 0 14L 14 0L 14 9.24L 332 9.24L 332 18.76L 14 18.76L 14 28L 0 14Z" stroke="rgba(255,255,255,1)" stroke-width="2" fill-opacity="1" fill="#1976d2"></path><g id="SvgjsG1058"><text id="SvgjsText1059" font-family="微软雅黑" text-anchor="middle" font-size="14px" width="332px" fill="#323232" font-weight="400" align="middle" lineHeight="125%" anchor="middle" family="微软雅黑" size="14px" weight="400" font-style="" opacity="1" y="2.250000000000001" transform="rotate(0)"></text></g></g><g id="SvgjsG1060" transform="translate(193.671875,497.3359375)"><path id="SvgjsPath1061" d="M 0 0L 156 0L 156 28L 0 28Z" stroke="rgba(25,118,210,1)" stroke-width="3" fill-opacity="1" fill="#ffffff"></path><g id="SvgjsG1062"><text id="SvgjsText1063" font-family="微软雅黑" text-anchor="middle" font-size="14px" width="136px" fill="#323232" font-weight="400" align="middle" lineHeight="125%" anchor="middle" family="微软雅黑" size="14px" weight="400" font-style="" opacity="1" y="2.25" transform="rotate(0)"><tspan id="SvgjsTspan1064" dy="17" x="78"><tspan id="SvgjsTspan1065" style="text-decoration:;">ACK号</tspan></tspan></text></g></g><g id="SvgjsG1066" transform="matrix(-1,1.2246467991473532e-16,-1.2246467991473532e-16,-1,435.046875,485.3359375)"><path id="SvgjsPath1067" d="M 0 14L 14 0L 14 9.24L 326.75 9.24L 326.75 18.76L 14 18.76L 14 28L 0 14Z" stroke="rgba(255,255,255,1)" stroke-width="2" fill-opacity="1" fill="#4dd0e1"></path><g id="SvgjsG1068"><text id="SvgjsText1069" font-family="微软雅黑" text-anchor="middle" font-size="14px" width="327px" fill="#323232" font-weight="400" align="middle" lineHeight="125%" anchor="middle" family="微软雅黑" size="14px" weight="400" font-style="" opacity="1" y="2.250000000000001" transform="rotate(0)"></text></g></g><g id="SvgjsG1070" transform="translate(193.671875,457.3359375)"><path id="SvgjsPath1071" d="M 0 0L 156 0L 156 28L 0 28Z" stroke="rgba(77,208,225,1)" stroke-width="3" fill-opacity="1" fill="#ffffff"></path><g id="SvgjsG1072"><text id="SvgjsText1073" font-family="微软雅黑" text-anchor="middle" font-size="14px" width="136px" fill="#323232" font-weight="400" align="middle" lineHeight="125%" anchor="middle" family="微软雅黑" size="14px" weight="400" font-style="" opacity="1" y="2.25" transform="rotate(0)"><tspan id="SvgjsTspan1074" dy="17" x="78"><tspan id="SvgjsTspan1075" style="text-decoration:;">FIN: 1</tspan></tspan></text></g></g><g id="SvgjsG1076" transform="translate(105.67187500000003,233.3359375)"><path id="SvgjsPath1077" d="M 0 14L 14 0L 14 9.24L 332 9.24L 332 18.76L 14 18.76L 14 28L 0 14Z" stroke="rgba(255,255,255,1)" stroke-width="2" fill-opacity="1" fill="#1976d2"></path><g id="SvgjsG1078"><text id="SvgjsText1079" font-family="微软雅黑" text-anchor="middle" font-size="14px" width="332px" fill="#323232" font-weight="400" align="middle" lineHeight="125%" anchor="middle" family="微软雅黑" size="14px" weight="400" font-style="" opacity="1" y="2.250000000000001" transform="rotate(0)"></text></g></g><g id="SvgjsG1080" transform="translate(193.671875,233.3359375)"><path id="SvgjsPath1081" d="M 0 0L 156 0L 156 28L 0 28Z" stroke="rgba(25,118,210,1)" stroke-width="3" fill-opacity="1" fill="#ffffff"></path><g id="SvgjsG1082"><text id="SvgjsText1083" font-family="微软雅黑" text-anchor="middle" font-size="14px" width="136px" fill="#323232" font-weight="400" align="middle" lineHeight="125%" anchor="middle" family="微软雅黑" size="14px" weight="400" font-style="" opacity="1" y="2.25" transform="rotate(0)"><tspan id="SvgjsTspan1084" dy="17" x="78"><tspan id="SvgjsTspan1085" style="text-decoration:;">序号+数据</tspan></tspan></text></g></g><g id="SvgjsG1086" transform="matrix(-1,1.2246467991473532e-16,-1.2246467991473532e-16,-1,437.671875,299.3359375)"><path id="SvgjsPath1087" d="M 0 14L 14 0L 14 9.24L 332 9.24L 332 18.76L 14 18.76L 14 28L 0 14Z" stroke="rgba(255,255,255,1)" stroke-width="2" fill-opacity="1" fill="#4dd0e1"></path><g id="SvgjsG1088"><text id="SvgjsText1089" font-family="微软雅黑" text-anchor="middle" font-size="14px" width="332px" fill="#323232" font-weight="400" align="middle" lineHeight="125%" anchor="middle" family="微软雅黑" size="14px" weight="400" font-style="" opacity="1" y="2.250000000000001" transform="rotate(0)"></text></g></g><g id="SvgjsG1090" transform="translate(196.671875,271.3359375)"><path id="SvgjsPath1091" d="M 0 0L 150 0L 150 28L 0 28Z" stroke="rgba(77,208,225,1)" stroke-width="3" fill-opacity="1" fill="#ffffff"></path><g id="SvgjsG1092"><text id="SvgjsText1093" font-family="微软雅黑" text-anchor="middle" font-size="14px" width="130px" fill="#323232" font-weight="400" align="middle" lineHeight="125%" anchor="middle" family="微软雅黑" size="14px" weight="400" font-style="" opacity="1" y="2.25" transform="rotate(0)"><tspan id="SvgjsTspan1094" dy="17" x="75"><tspan id="SvgjsTspan1095" style="text-decoration:;">ACK号，窗口</tspan></tspan></text></g></g><g id="SvgjsG1096" transform="translate(105.671875,535.3359375)"><path id="SvgjsPath1097" d="M 0 14L 14 0L 14 9.24L 332 9.24L 332 18.76L 14 18.76L 14 28L 0 14Z" stroke="rgba(255,255,255,1)" stroke-width="2" fill-opacity="1" fill="#1976d2"></path><g id="SvgjsG1098"><text id="SvgjsText1099" font-family="微软雅黑" text-anchor="middle" font-size="14px" width="332px" fill="#323232" font-weight="400" align="middle" lineHeight="125%" anchor="middle" family="微软雅黑" size="14px" weight="400" font-style="" opacity="1" y="2.250000000000001" transform="rotate(0)"></text></g></g><g id="SvgjsG1100" transform="translate(193.671875,535.3359375)"><path id="SvgjsPath1101" d="M 0 0L 156 0L 156 28L 0 28Z" stroke="rgba(25,118,210,1)" stroke-width="3" fill-opacity="1" fill="#ffffff"></path><g id="SvgjsG1102"><text id="SvgjsText1103" font-family="微软雅黑" text-anchor="middle" font-size="14px" width="136px" fill="#323232" font-weight="400" align="middle" lineHeight="125%" anchor="middle" family="微软雅黑" size="14px" weight="400" font-style="" opacity="1" y="2.25" transform="rotate(0)"><tspan id="SvgjsTspan1104" dy="17" x="78"><tspan id="SvgjsTspan1105" style="text-decoration:;">FIN: 1</tspan></tspan></text></g></g><g id="SvgjsG1106" transform="matrix(-1,1.2246467991473532e-16,-1.2246467991473532e-16,-1,437.671875,601.3359375)"><path id="SvgjsPath1107" d="M 0 14L 14 0L 14 9.24L 332 9.24L 332 18.76L 14 18.76L 14 28L 0 14Z" stroke="rgba(255,255,255,1)" stroke-width="2" fill-opacity="1" fill="#4dd0e1"></path><g id="SvgjsG1108"><text id="SvgjsText1109" font-family="微软雅黑" text-anchor="middle" font-size="14px" width="332px" fill="#323232" font-weight="400" align="middle" lineHeight="125%" anchor="middle" family="微软雅黑" size="14px" weight="400" font-style="" opacity="1" y="2.250000000000001" transform="rotate(0)"></text></g></g><g id="SvgjsG1110" transform="translate(193.671875,573.3359375)"><path id="SvgjsPath1111" d="M 0 0L 156 0L 156 28L 0 28Z" stroke="rgba(77,208,225,1)" stroke-width="3" fill-opacity="1" fill="#ffffff"></path><g id="SvgjsG1112"><text id="SvgjsText1113" font-family="微软雅黑" text-anchor="middle" font-size="14px" width="136px" fill="#323232" font-weight="400" align="middle" lineHeight="125%" anchor="middle" family="微软雅黑" size="14px" weight="400" font-style="" opacity="1" y="2.25" transform="rotate(0)"><tspan id="SvgjsTspan1114" dy="17" x="78"><tspan id="SvgjsTspan1115" style="text-decoration:;">ACK号</tspan></tspan></text></g></g><g id="SvgjsG1116" transform="translate(105.671875,385.3359375)"><path id="SvgjsPath1117" d="M 0 14L 14 0L 14 9.24L 332 9.24L 332 18.76L 14 18.76L 14 28L 0 14Z" stroke="rgba(255,255,255,1)" stroke-width="2" fill-opacity="1" fill="#1976d2"></path><g id="SvgjsG1118"><text id="SvgjsText1119" font-family="微软雅黑" text-anchor="middle" font-size="14px" width="332px" fill="#323232" font-weight="400" align="middle" lineHeight="125%" anchor="middle" family="微软雅黑" size="14px" weight="400" font-style="" opacity="1" y="2.250000000000001" transform="rotate(0)"></text></g></g><g id="SvgjsG1120" transform="translate(193.671875,385.3359375)"><path id="SvgjsPath1121" d="M 0 0L 156 0L 156 28L 0 28Z" stroke="rgba(25,118,210,1)" stroke-width="3" fill-opacity="1" fill="#ffffff"></path><g id="SvgjsG1122"><text id="SvgjsText1123" font-family="微软雅黑" text-anchor="middle" font-size="14px" width="136px" fill="#323232" font-weight="400" align="middle" lineHeight="125%" anchor="middle" family="微软雅黑" size="14px" weight="400" font-style="" opacity="1" y="2.25" transform="rotate(0)"><tspan id="SvgjsTspan1124" dy="17" x="78"><tspan id="SvgjsTspan1125" style="text-decoration:;">ACK号，窗口</tspan></tspan></text></g></g><g id="SvgjsG1126" transform="matrix(-1,1.2246467991473532e-16,-1.2246467991473532e-16,-1,442.671875,370.3359375)"><path id="SvgjsPath1127" d="M 0 14L 14 0L 14 9.24L 342 9.24L 342 18.76L 14 18.76L 14 28L 0 14Z" stroke="rgba(255,255,255,1)" stroke-width="2" fill-opacity="1" fill="#4dd0e1"></path><g id="SvgjsG1128"><text id="SvgjsText1129" font-family="微软雅黑" text-anchor="middle" font-size="14px" width="342px" fill="#323232" font-weight="400" align="middle" lineHeight="125%" anchor="middle" family="微软雅黑" size="14px" weight="400" font-style="" opacity="1" y="2.250000000000001" transform="rotate(0)"></text></g></g><g id="SvgjsG1130" transform="translate(196.671875,342.3359375)"><path id="SvgjsPath1131" d="M 0 0L 150 0L 150 28L 0 28Z" stroke="rgba(77,208,225,1)" stroke-width="3" fill-opacity="1" fill="#ffffff"></path><g id="SvgjsG1132"><text id="SvgjsText1133" font-family="微软雅黑" text-anchor="middle" font-size="14px" width="130px" fill="#323232" font-weight="400" align="middle" lineHeight="125%" anchor="middle" family="微软雅黑" size="14px" weight="400" font-style="" opacity="1" y="2.25" transform="rotate(0)"><tspan id="SvgjsTspan1134" dy="17" x="75"><tspan id="SvgjsTspan1135" style="text-decoration:;">序号+数据</tspan></tspan></text></g></g><g id="SvgjsG1136" transform="translate(237.671875,297.8359375)"><path id="SvgjsPath1137" d="M 0 0L 68 0L 68 41L 0 41Z" stroke="none" fill="none"></path><g id="SvgjsG1138"><text id="SvgjsText1139" font-family="微软雅黑" text-anchor="middle" font-size="32px" width="68px" fill="#323232" font-weight="700" align="middle" lineHeight="125%" anchor="middle" family="微软雅黑" size="32px" weight="700" font-style="" opacity="1" y="-7.5" transform="rotate(0)"><tspan id="SvgjsTspan1140" dy="40" x="34"><tspan id="SvgjsTspan1141" style="text-decoration:;">. . .</tspan></tspan></text></g></g><g id="SvgjsG1142" transform="translate(454.171875,75.3359375)"><path id="SvgjsPath1143" d="M 0 100Q 9 100 9 91L 9 59Q 9 50 22 50Q 9 50 9 41L 9 9Q 9 0 0 0" stroke="rgba(50,50,50,1)" stroke-width="2" fill="none"></path><path id="SvgjsPath1144" d="M 0 0L 107 0L 107 100L 0 100Z" stroke="none" fill="none"></path><g id="SvgjsG1145"><text id="SvgjsText1146" font-family="微软雅黑" text-anchor="start" font-size="14px" width="80px" fill="#323232" font-weight="700" align="middle" lineHeight="125%" anchor="start" family="微软雅黑" size="14px" weight="700" font-style="" opacity="1" y="29.75" transform="rotate(0)"><tspan id="SvgjsTspan1147" dy="17" x="27"><tspan id="SvgjsTspan1148" style="text-decoration:;">建立连接</tspan></tspan><tspan id="SvgjsTspan1149" dy="17" x="27"><tspan id="SvgjsTspan1150" style="text-decoration:;">（3次握手）</tspan></tspan></text></g></g><g id="SvgjsG1151" transform="translate(457.671875,225.83593750000006)"><path id="SvgjsPath1152" d="M 0 184.9999999999999Q 9 184.9999999999999 9 175.9999999999999L 9 101.49999999999994Q 9 92.49999999999994 22 92.49999999999994Q 9 92.49999999999994 9 83.49999999999994L 9 9Q 9 0 0 0" stroke="rgba(50,50,50,1)" stroke-width="2" fill="none"></path><path id="SvgjsPath1153" d="M 0 0L 100 0L 100 184.9999999999999L 0 184.9999999999999Z" stroke="none" fill="none"></path><g id="SvgjsG1154"><text id="SvgjsText1155" font-family="微软雅黑" text-anchor="start" font-size="14px" width="73px" fill="#323232" font-weight="700" align="middle" lineHeight="125%" anchor="start" family="微软雅黑" size="14px" weight="700" font-style="" opacity="1" y="80.74999999999994" transform="rotate(0)"><tspan id="SvgjsTspan1156" dy="17" x="27"><tspan id="SvgjsTspan1157" style="text-decoration:;">收发数据</tspan></tspan></text></g></g><g id="SvgjsG1158" transform="translate(454.171875,455.83593750000045)"><path id="SvgjsPath1159" d="M 0 141.99999999999955Q 9 141.99999999999955 9 132.99999999999955L 9 79.99999999999977Q 9 70.99999999999977 22 70.99999999999977Q 9 70.99999999999977 9 61.99999999999977L 9 9Q 9 0 0 0" stroke="rgba(50,50,50,1)" stroke-width="2" fill="none"></path><path id="SvgjsPath1160" d="M 0 0L 107 0L 107 141.99999999999955L 0 141.99999999999955Z" stroke="none" fill="none"></path><g id="SvgjsG1161"><text id="SvgjsText1162" font-family="微软雅黑" text-anchor="start" font-size="14px" width="80px" fill="#323232" font-weight="700" align="middle" lineHeight="125%" anchor="start" family="微软雅黑" size="14px" weight="700" font-style="" opacity="1" y="50.74999999999977" transform="rotate(0)"><tspan id="SvgjsTspan1163" dy="17" x="27"><tspan id="SvgjsTspan1164" style="text-decoration:;">断开连接</tspan></tspan><tspan id="SvgjsTspan1165" dy="17" x="27"><tspan id="SvgjsTspan1166" style="text-decoration:;">（4次挥手）</tspan></tspan></text></g></g><g id="SvgjsG1167" transform="translate(25.00520833333335,272.8359375)"><path id="SvgjsPath1168" d="M 0 10.11111111111111L 60.44444444444444 10.11111111111111L 60.44444444444444 91L 0 91L 0 10.11111111111111Z" stroke="rgba(50,50,50,1)" stroke-width="2" fill-opacity="1" fill="#ffffff"></path><path id="SvgjsPath1169" d="M 0 10.11111111111111L 7.555555555555555 0L 68 0L 68 80.88888888888889L 60.44444444444444 91L 60.44444444444444 10.11111111111111L 0 10.11111111111111ZM 60.44444444444444 10.11111111111111L 68 0" stroke="rgba(50,50,50,1)" stroke-width="2" fill-opacity="1" fill="#e6e6e6"></path><path id="SvgjsPath1170" d="M 0 0L 68 0L 68 91L 0 91Z" stroke="none" fill="none"></path><g id="SvgjsG1171"><text id="SvgjsText1172" font-family="微软雅黑" text-anchor="middle" font-size="13px" width="41px" fill="#323232" font-weight="700" align="middle" lineHeight="125%" anchor="middle" family="微软雅黑" size="13px" weight="700" font-style="" opacity="1" y="39.93055555555556" transform="rotate(0)"><tspan id="SvgjsTspan1173" dy="16" x="30.5"><tspan id="SvgjsTspan1174" style="text-decoration:;">服务器</tspan></tspan></text></g></g><g id="SvgjsG1175" transform="translate(482.08854166666606,180.33593750000028)"><path id="SvgjsPath1176" d="M 0 10.11111111111111L 60.44444444444444 10.11111111111111L 60.44444444444444 91L 0 91L 0 10.11111111111111Z" stroke="rgba(50,50,50,1)" stroke-width="2" fill-opacity="1" fill="#ffffff"></path><path id="SvgjsPath1177" d="M 0 10.11111111111111L 7.555555555555555 0L 68 0L 68 80.88888888888889L 60.44444444444444 91L 60.44444444444444 10.11111111111111L 0 10.11111111111111ZM 60.44444444444444 10.11111111111111L 68 0" stroke="rgba(50,50,50,1)" stroke-width="2" fill-opacity="1" fill="#e6e6e6"></path><path id="SvgjsPath1178" d="M 0 0L 68 0L 68 91L 0 91Z" stroke="none" fill="none"></path><g id="SvgjsG1179"><text id="SvgjsText1180" font-family="微软雅黑" text-anchor="middle" font-size="13px" width="41px" fill="#323232" font-weight="700" align="middle" lineHeight="125%" anchor="middle" family="微软雅黑" size="13px" weight="700" font-style="" opacity="1" y="39.93055555555556" transform="rotate(0)"><tspan id="SvgjsTspan1181" dy="16" x="30.5"><tspan id="SvgjsTspan1182" style="text-decoration:;">客户端</tspan></tspan></text></g></g></svg>