<svg id="SvgjsSvg1006" width="429" height="506.25" xmlns="http://www.w3.org/2000/svg" version="1.1" xmlns:xlink="http://www.w3.org/1999/xlink" xmlns:svgjs="http://svgjs.com/svgjs"><defs id="SvgjsDefs1007"></defs><g id="SvgjsG1008" transform="translate(94,25)"><path id="SvgjsPath1009" d="M 0 4Q 0 0 4 0L 306 0Q 310 0 310 4L 310 408.25Q 310 412.25 306 412.25L 4 412.25Q 0 412.25 0 408.25Z" stroke="rgba(50,50,50,1)" stroke-width="2" fill-opacity="1" fill="#ffffff"></path><g id="SvgjsG1010"><text id="SvgjsText1011" font-family="微软雅黑" text-anchor="middle" font-size="14px" width="300px" fill="#323232" font-weight="400" align="middle" lineHeight="125%" anchor="middle" family="微软雅黑" size="14px" weight="400" font-style="" opacity="1" y="18.69642857142857" transform="rotate(0)"></text></g></g><g id="SvgjsG1012" transform="translate(102,159.25)"><path id="SvgjsPath1013" d="M 0 4Q 0 0 4 0L 284 0Q 288 0 288 4L 288 152Q 288 156 284 156L 4 156Q 0 156 0 152Z" stroke="rgba(50,50,50,1)" stroke-width="2" fill-opacity="1" fill="#ffffff"></path><g id="SvgjsG1014"><text id="SvgjsText1015" font-family="微软雅黑" text-anchor="middle" font-size="14px" width="278px" fill="#323232" font-weight="400" align="middle" lineHeight="125%" anchor="middle" family="微软雅黑" size="14px" weight="400" font-style="" opacity="1" y="0.39285714285714235" transform="rotate(0)"></text></g></g><g id="SvgjsG1016" transform="translate(102,36.75)"><path id="SvgjsPath1017" d="M 0 4Q 0 0 4 0L 284 0Q 288 0 288 4L 288 85.5Q 288 89.5 284 89.5L 4 89.5Q 0 89.5 0 85.5Z" stroke="rgba(50,50,50,1)" stroke-width="2" fill-opacity="1" fill="#ffffff"></path><g id="SvgjsG1018"><text id="SvgjsText1019" font-family="微软雅黑" text-anchor="middle" font-size="14px" width="278px" fill="#323232" font-weight="400" align="middle" lineHeight="125%" anchor="middle" family="微软雅黑" size="14px" weight="400" font-style="" opacity="1" y="-4.357142857142858" transform="rotate(0)"><tspan id="SvgjsTspan1020" dy="17" x="144"><tspan id="SvgjsTspan1021" style="text-decoration:;"> </tspan></tspan></text></g></g><g id="SvgjsG1022" transform="translate(107,83.75)"><path id="SvgjsPath1023" d="M 0 0L 278 0L 278 35L 0 35Z" stroke="rgba(50,50,50,1)" stroke-width="1" fill-opacity="1" fill="#4dd0e1"></path><g id="SvgjsG1024"><text id="SvgjsText1025" font-family="微软雅黑" text-anchor="middle" font-size="14px" width="258px" fill="#323232" font-weight="400" align="middle" lineHeight="125%" anchor="middle" family="微软雅黑" size="14px" weight="400" font-style="" opacity="1" y="5.75" transform="rotate(0)"><tspan id="SvgjsTspan1026" dy="17" x="139"><tspan id="SvgjsTspan1027" style="text-decoration:;">Socket库</tspan></tspan></text></g></g><g id="SvgjsG1028" transform="translate(163.5,31.75)"><path id="SvgjsPath1029" d="M 0 0L 165 0L 165 47L 0 47Z" stroke="none" fill="none"></path><g id="SvgjsG1030"><text id="SvgjsText1031" font-family="微软雅黑" text-anchor="middle" font-size="14px" width="165px" fill="#323232" font-weight="400" align="middle" lineHeight="125%" anchor="middle" family="微软雅黑" size="14px" weight="400" font-style="" opacity="1" y="3.25" transform="rotate(0)"><tspan id="SvgjsTspan1032" dy="17" x="82.5"><tspan id="SvgjsTspan1033" style="text-decoration:;">应用程序</tspan></tspan><tspan id="SvgjsTspan1034" dy="17" x="82.5"><tspan id="SvgjsTspan1035" style="text-decoration:;">（浏览器、web服务器等）</tspan></tspan></text></g></g><g id="SvgjsG1036" transform="translate(107,195.75)"><path id="SvgjsPath1037" d="M 0 0L 132 0L 132 35L 0 35Z" stroke="rgba(50,50,50,1)" stroke-width="1" fill-opacity="1" fill="#4dd0e1"></path><g id="SvgjsG1038"><text id="SvgjsText1039" font-family="微软雅黑" text-anchor="middle" font-size="14px" width="112px" fill="#323232" font-weight="400" align="middle" lineHeight="125%" anchor="middle" family="微软雅黑" size="14px" weight="400" font-style="" opacity="1" y="-2.75" transform="rotate(0)"><tspan id="SvgjsTspan1040" dy="17" x="66"><tspan id="SvgjsTspan1041" style="text-decoration:;">TCP</tspan></tspan><tspan id="SvgjsTspan1042" dy="17" x="66"><tspan id="SvgjsTspan1043" style="text-decoration:;">（需要连接）</tspan></tspan></text></g></g><g id="SvgjsG1044" transform="translate(253,195.75)"><path id="SvgjsPath1045" d="M 0 0L 132 0L 132 35L 0 35Z" stroke="rgba(50,50,50,1)" stroke-width="1" fill-opacity="1" fill="#4dd0e1"></path><g id="SvgjsG1046"><text id="SvgjsText1047" font-family="微软雅黑" text-anchor="middle" font-size="14px" width="112px" fill="#323232" font-weight="400" align="middle" lineHeight="125%" anchor="middle" family="微软雅黑" size="14px" weight="400" font-style="" opacity="1" y="-2.75" transform="rotate(0)"><tspan id="SvgjsTspan1048" dy="17" x="66"><tspan id="SvgjsTspan1049" style="text-decoration:;">UDP</tspan></tspan><tspan id="SvgjsTspan1050" dy="17" x="66"><tspan id="SvgjsTspan1051" style="text-decoration:;">（不需要连接）</tspan></tspan></text></g></g><g id="SvgjsG1052" transform="translate(107,241.25)"><path id="SvgjsPath1053" d="M 0 0L 278 0L 278 64L 0 64Z" stroke="rgba(50,50,50,1)" stroke-width="1" fill-opacity="1" fill="#4dd0e1"></path><g id="SvgjsG1054"><text id="SvgjsText1055" font-family="微软雅黑" text-anchor="middle" font-size="14px" width="258px" fill="#323232" font-weight="400" align="middle" lineHeight="125%" anchor="middle" family="微软雅黑" size="14px" weight="400" font-style="" opacity="1" y="11.75" transform="rotate(0)"><tspan id="SvgjsTspan1056" dy="17" x="139"><tspan id="SvgjsTspan1057" style="text-decoration:;">IP</tspan></tspan><tspan id="SvgjsTspan1058" dy="17" x="139"><tspan id="SvgjsTspan1059" style="text-decoration:;">（传送网络包、确定路由）</tspan></tspan></text></g></g><g id="SvgjsG1060" transform="translate(107,336.75)"><path id="SvgjsPath1061" d="M 0 0L 278 0L 278 35L 0 35Z" stroke="rgba(50,50,50,1)" stroke-width="2" fill-opacity="1" fill="#ffffff"></path><g id="SvgjsG1062"><text id="SvgjsText1063" font-family="微软雅黑" text-anchor="middle" font-size="14px" width="258px" fill="#323232" font-weight="400" align="middle" lineHeight="125%" anchor="middle" family="微软雅黑" size="14px" weight="400" font-style="" opacity="1" y="5.75" transform="rotate(0)"><tspan id="SvgjsTspan1064" dy="17" x="139"><tspan id="SvgjsTspan1065" style="text-decoration:;">网卡驱动控制程序</tspan></tspan></text></g></g><g id="SvgjsG1066" transform="translate(107,391.75)"><path id="SvgjsPath1067" d="M 0 0L 278 0L 278 35L 0 35Z" stroke="rgba(50,50,50,1)" stroke-width="2" fill-opacity="1" fill="#ffffff"></path><g id="SvgjsG1068"><text id="SvgjsText1069" font-family="微软雅黑" text-anchor="middle" font-size="14px" width="258px" fill="#323232" font-weight="400" align="middle" lineHeight="125%" anchor="middle" family="微软雅黑" size="14px" weight="400" font-style="" opacity="1" y="5.75" transform="rotate(0)"><tspan id="SvgjsTspan1070" dy="17" x="139"><tspan id="SvgjsTspan1071" style="text-decoration:;">网卡</tspan></tspan></text></g></g><g id="SvgjsG1072" transform="translate(107,245.25)"><path id="SvgjsPath1073" d="M 0 0L 62 0L 62 28L 0 28Z" stroke-dasharray="10,6" stroke="rgba(50,50,50,1)" stroke-width="2" fill-opacity="1" fill="#ffffff"></path><g id="SvgjsG1074"><text id="SvgjsText1075" font-family="微软雅黑" text-anchor="middle" font-size="14px" width="42px" fill="#1976d2" font-weight="400" align="middle" lineHeight="125%" anchor="middle" family="微软雅黑" size="14px" weight="400" font-style="" opacity="1" y="2.25" transform="rotate(0)"><tspan id="SvgjsTspan1076" dy="17" x="31"><tspan id="SvgjsTspan1077" style="text-decoration:;">ICMP</tspan></tspan></text></g></g><g id="SvgjsG1078" transform="translate(328.5,248.75)"><path id="SvgjsPath1079" d="M 0 0L 50 0L 50 21L 0 21Z" stroke-dasharray="10,6" stroke="rgba(50,50,50,1)" stroke-width="2" fill-opacity="1" fill="#ffffff"></path><g id="SvgjsG1080"><text id="SvgjsText1081" font-family="微软雅黑" text-anchor="middle" font-size="14px" width="30px" fill="#1976d2" font-weight="400" align="middle" lineHeight="125%" anchor="middle" family="微软雅黑" size="14px" weight="400" font-style="" opacity="1" y="-1.25" transform="rotate(0)"><tspan id="SvgjsTspan1082" dy="17" x="25"><tspan id="SvgjsTspan1083" style="text-decoration:;">ARP</tspan></tspan></text></g></g><g id="SvgjsG1084" transform="translate(113,166.25)"><path id="SvgjsPath1085" d="M 0 0L 50 0L 50 28L 0 28Z" stroke="none" fill="none"></path><g id="SvgjsG1086"><text id="SvgjsText1087" font-family="微软雅黑" text-anchor="middle" font-size="14px" width="50px" fill="#323232" font-weight="400" align="middle" lineHeight="125%" anchor="middle" family="微软雅黑" size="14px" weight="400" font-style="" opacity="1" y="2.25" transform="rotate(0)"><tspan id="SvgjsTspan1088" dy="17" x="25"><tspan id="SvgjsTspan1089" style="text-decoration:;font-weight: bold;">协议栈</tspan></tspan></text></g></g><g id="SvgjsG1090"><path id="SvgjsPath1091" d="M25 145.25L214.5 145.25L214.5 145.25L404 145.25" stroke-dasharray="8,5" stroke="#1976d2" stroke-width="2" fill="none"></path></g><g id="SvgjsG1092"><path id="SvgjsPath1093" d="M25 325.25L212.5 325.25L212.5 325.25L400 325.25" stroke-dasharray="8,5" stroke="#1976d2" stroke-width="2" fill="none"></path></g><g id="SvgjsG1094"><path id="SvgjsPath1095" d="M25 381.25L214.5 381.25L214.5 381.25L404 381.25" stroke-dasharray="8,5" stroke="#1976d2" stroke-width="2" fill="none"></path></g><g id="SvgjsG1096" transform="translate(37,395.25)"><path id="SvgjsPath1097" d="M 0 0L 40 0L 40 28L 0 28Z" stroke="none" fill="none"></path><g id="SvgjsG1098"><text id="SvgjsText1099" font-family="微软雅黑" text-anchor="middle" font-size="14px" width="40px" fill="#2196f3" font-weight="400" align="middle" lineHeight="125%" anchor="middle" family="微软雅黑" size="14px" weight="400" font-style="" opacity="1" y="2.25" transform="rotate(0)"><tspan id="SvgjsTspan1100" dy="17" x="20"><tspan id="SvgjsTspan1101" style="text-decoration:;font-weight: bold;">硬件</tspan></tspan></text></g></g><g id="SvgjsG1102" transform="translate(26,336.75)"><path id="SvgjsPath1103" d="M 0 0L 62 0L 62 35L 0 35Z" stroke="none" fill="none"></path><g id="SvgjsG1104"><text id="SvgjsText1105" font-family="微软雅黑" text-anchor="middle" font-size="14px" width="62px" fill="#2196f3" font-weight="400" align="middle" lineHeight="125%" anchor="middle" family="微软雅黑" size="14px" weight="400" font-style="" opacity="1" y="5.75" transform="rotate(0)"><tspan id="SvgjsTspan1106" dy="17" x="31"><tspan id="SvgjsTspan1107" style="text-decoration:;font-weight: bold;">驱动程序</tspan></tspan></text></g></g><g id="SvgjsG1108" transform="translate(26,162.75)"><path id="SvgjsPath1109" d="M 0 0L 62 0L 62 35L 0 35Z" stroke="none" fill="none"></path><g id="SvgjsG1110"><text id="SvgjsText1111" font-family="微软雅黑" text-anchor="middle" font-size="14px" width="62px" fill="#2196f3" font-weight="400" align="middle" lineHeight="125%" anchor="middle" family="微软雅黑" size="14px" weight="400" font-style="" opacity="1" y="5.75" transform="rotate(0)"><tspan id="SvgjsTspan1112" dy="17" x="31"><tspan id="SvgjsTspan1113" style="text-decoration:;font-weight: bold;">操作系统</tspan></tspan></text></g></g><g id="SvgjsG1114" transform="translate(26,37.75)"><path id="SvgjsPath1115" d="M 0 0L 62 0L 62 35L 0 35Z" stroke="none" fill="none"></path><g id="SvgjsG1116"><text id="SvgjsText1117" font-family="微软雅黑" text-anchor="middle" font-size="14px" width="62px" fill="#2196f3" font-weight="400" align="middle" lineHeight="125%" anchor="middle" family="微软雅黑" size="14px" weight="400" font-style="" opacity="1" y="5.75" transform="rotate(0)"><tspan id="SvgjsTspan1118" dy="17" x="31"><tspan id="SvgjsTspan1119" style="text-decoration:;font-weight: bold;">应用程序</tspan></tspan></text></g></g><g id="SvgjsG1120" transform="translate(94,456.25)"><path id="SvgjsPath1121" d="M 0 0L 215 0L 215 25L 0 25Z" stroke="none" fill="none"></path><g id="SvgjsG1122"><text id="SvgjsText1123" font-family="微软雅黑" text-anchor="middle" font-size="14px" width="215px" fill="#323232" font-weight="400" align="middle" lineHeight="125%" anchor="middle" family="微软雅黑" size="14px" weight="400" font-style="" opacity="1" y="0.75" transform="rotate(0)"><tspan id="SvgjsTspan1124" dy="17" x="107.5"><tspan id="SvgjsTspan1125" style="text-decoration:;">备注：上层会向下层逐层委派任务</tspan></tspan></text></g></g></svg>