<svg id="SvgjsSvg1006" width="1064.7578125" height="286.5" xmlns="http://www.w3.org/2000/svg" version="1.1" xmlns:xlink="http://www.w3.org/1999/xlink" xmlns:svgjs="http://svgjs.com/svgjs"><defs id="SvgjsDefs1007"><marker id="SvgjsMarker1118" markerWidth="14" markerHeight="10" refX="10" refY="5" viewBox="0 0 14 10" orient="auto" markerUnits="userSpaceOnUse" stroke-dasharray="0,0"><path id="SvgjsPath1119" d="M0,0 L14,5 L0,10 L0,0" fill="#1976d2" stroke="#1976d2" stroke-width="1"></path></marker><marker id="SvgjsMarker1122" markerWidth="14" markerHeight="10" refX="10" refY="5" viewBox="0 0 14 10" orient="auto" markerUnits="userSpaceOnUse" stroke-dasharray="0,0"><path id="SvgjsPath1123" d="M0,0 L14,5 L0,10 L0,0" fill="#1976d2" stroke="#1976d2" stroke-width="1"></path></marker><marker id="SvgjsMarker1126" markerWidth="14" markerHeight="10" refX="10" refY="5" viewBox="0 0 14 10" orient="auto" markerUnits="userSpaceOnUse" stroke-dasharray="0,0"><path id="SvgjsPath1127" d="M0,0 L14,5 L0,10 L0,0" fill="#1976d2" stroke="#1976d2" stroke-width="1"></path></marker><marker id="SvgjsMarker1130" markerWidth="14" markerHeight="10" refX="10" refY="5" viewBox="0 0 14 10" orient="auto" markerUnits="userSpaceOnUse" stroke-dasharray="0,0"><path id="SvgjsPath1131" d="M0,0 L14,5 L0,10 L0,0" fill="#1976d2" stroke="#1976d2" stroke-width="1"></path></marker></defs><g id="SvgjsG1008" transform="translate(241.7578125,25)"><path id="SvgjsPath1009" d="M 0 4Q 0 0 4 0L 794 0Q 798 0 798 4L 798 224Q 798 228 794 228L 4 228Q 0 228 0 224Z" stroke="rgba(50,50,50,1)" stroke-width="2" fill-opacity="1" fill="#ffffff"></path><g id="SvgjsG1010"><text id="SvgjsText1011" font-family="微软雅黑" text-anchor="middle" font-size="13px" width="788px" fill="#323232" font-weight="400" align="middle" lineHeight="125%" anchor="middle" family="微软雅黑" size="13px" weight="400" font-style="" opacity="1" y="6.660714285714285" transform="rotate(0)"></text></g></g><g id="SvgjsG1012" transform="translate(253.2578125,162)"><path id="SvgjsPath1013" d="M 0 0L 157 0L 157 58L 0 58Z" stroke="rgba(50,50,50,1)" stroke-width="2" fill-opacity="1" fill="#ffffff"></path><g id="SvgjsG1014"><text id="SvgjsText1015" font-family="微软雅黑" text-anchor="middle" font-size="13px" width="137px" fill="#323232" font-weight="400" align="middle" lineHeight="125%" anchor="middle" family="微软雅黑" size="13px" weight="400" font-style="" opacity="1" y="18.375" transform="rotate(0)"></text></g></g><g id="SvgjsG1016" transform="translate(257.2578125,162)"><path id="SvgjsPath1017" d="M 0 0L 29 0L 29 20L 0 20Z" stroke="rgba(50,50,50,1)" stroke-width="2" fill-opacity="1" fill="#ffffff"></path><g id="SvgjsG1018"><text id="SvgjsText1019" font-family="微软雅黑" text-anchor="middle" font-size="13px" width="9px" fill="#323232" font-weight="400" align="middle" lineHeight="125%" anchor="middle" family="微软雅黑" size="13px" weight="400" font-style="" opacity="1" y="-0.625" transform="rotate(0)"></text></g></g><g id="SvgjsG1020" transform="translate(262.2578125,200)"><path id="SvgjsPath1021" d="M 0 4Q 0 0 4 0L 15 0Q 19 0 19 4L 19 16Q 19 20 15 20L 4 20Q 0 20 0 16Z" stroke="none" fill-opacity="1" fill="#323232"></path></g><g id="SvgjsG1022" transform="translate(289.46733630952383,200)"><path id="SvgjsPath1023" d="M 0 4Q 0 0 4 0L 15 0Q 19 0 19 4L 19 16Q 19 20 15 20L 4 20Q 0 20 0 16Z" stroke="none" fill-opacity="1" fill="#323232"></path></g><g id="SvgjsG1024" transform="translate(322.2578125,200)"><path id="SvgjsPath1025" d="M 0 4Q 0 0 4 0L 15 0Q 19 0 19 4L 19 16Q 19 20 15 20L 4 20Q 0 20 0 16Z" stroke="none" fill-opacity="1" fill="#323232"></path></g><g id="SvgjsG1026" transform="translate(345.7530505952381,200)"><path id="SvgjsPath1027" d="M 0 4Q 0 0 4 0L 15 0Q 19 0 19 4L 19 16Q 19 20 15 20L 4 20Q 0 20 0 16Z" stroke="none" fill-opacity="1" fill="#323232"></path></g><g id="SvgjsG1028" transform="translate(373.8959077380952,200)"><path id="SvgjsPath1029" d="M 0 4Q 0 0 4 0L 15 0Q 19 0 19 4L 19 16Q 19 20 15 20L 4 20Q 0 20 0 16Z" stroke="none" fill-opacity="1" fill="#323232"></path></g><g id="SvgjsG1030" transform="translate(283.8387648809524,220.5)"><path id="SvgjsPath1031" d="M 0 0L 112.57142857142857 0L 112.57142857142857 41L 0 41Z" stroke="none" fill="none"></path><g id="SvgjsG1032"><text id="SvgjsText1033" font-family="微软雅黑" text-anchor="middle" font-size="14px" width="113px" fill="#323232" font-weight="400" align="middle" lineHeight="125%" anchor="middle" family="微软雅黑" size="14px" weight="400" font-style="" opacity="1" y="8.75" transform="rotate(0)"><tspan id="SvgjsTspan1034" dy="17" x="56.5"><tspan id="SvgjsTspan1035" style="text-decoration:;">互联网接入路由器</tspan></tspan></text></g></g><g id="SvgjsG1036" transform="translate(445.2578125,162)"><path id="SvgjsPath1037" d="M 0 0L 165 0L 165 58L 0 58Z" stroke="rgba(50,50,50,1)" stroke-width="2" fill-opacity="1" fill="#ffffff"></path><g id="SvgjsG1038"><text id="SvgjsText1039" font-family="微软雅黑" text-anchor="middle" font-size="13px" width="145px" fill="#323232" font-weight="400" align="middle" lineHeight="125%" anchor="middle" family="微软雅黑" size="13px" weight="400" font-style="" opacity="1" y="18.375" transform="rotate(0)"></text></g></g><g id="SvgjsG1040" transform="translate(450.2578125,162)"><path id="SvgjsPath1041" d="M 0 0L 29 0L 29 20L 0 20Z" stroke="rgba(50,50,50,1)" stroke-width="2" fill-opacity="1" fill="#ffffff"></path><g id="SvgjsG1042"><text id="SvgjsText1043" font-family="微软雅黑" text-anchor="middle" font-size="13px" width="9px" fill="#323232" font-weight="400" align="middle" lineHeight="125%" anchor="middle" family="微软雅黑" size="13px" weight="400" font-style="" opacity="1" y="-0.625" transform="rotate(0)"></text></g></g><g id="SvgjsG1044" transform="translate(455.2578125,200)"><path id="SvgjsPath1045" d="M 0 4Q 0 0 4 0L 15 0Q 19 0 19 4L 19 16Q 19 20 15 20L 4 20Q 0 20 0 16Z" stroke="none" fill-opacity="1" fill="#323232"></path></g><g id="SvgjsG1046" transform="translate(484.7578125,200)"><path id="SvgjsPath1047" d="M 0 4Q 0 0 4 0L 15 0Q 19 0 19 4L 19 16Q 19 20 15 20L 4 20Q 0 20 0 16Z" stroke="none" fill-opacity="1" fill="#323232"></path></g><g id="SvgjsG1048" transform="translate(518.2578125,200)"><path id="SvgjsPath1049" d="M 0 4Q 0 0 4 0L 15 0Q 19 0 19 4L 19 16Q 19 20 15 20L 4 20Q 0 20 0 16Z" stroke="none" fill-opacity="1" fill="#323232"></path></g><g id="SvgjsG1050" transform="translate(544.7578125,200)"><path id="SvgjsPath1051" d="M 0 4Q 0 0 4 0L 15 0Q 19 0 19 4L 19 16Q 19 20 15 20L 4 20Q 0 20 0 16Z" stroke="none" fill-opacity="1" fill="#323232"></path></g><g id="SvgjsG1052" transform="translate(574.7578125,200)"><path id="SvgjsPath1053" d="M 0 4Q 0 0 4 0L 15 0Q 19 0 19 4L 19 16Q 19 20 15 20L 4 20Q 0 20 0 16Z" stroke="none" fill-opacity="1" fill="#323232"></path></g><g id="SvgjsG1054" transform="translate(467.7578125,220.5)"><path id="SvgjsPath1055" d="M 0 0L 120 0L 120 41L 0 41Z" stroke="none" fill="none"></path><g id="SvgjsG1056"><text id="SvgjsText1057" font-family="微软雅黑" text-anchor="middle" font-size="14px" width="120px" fill="#323232" font-weight="400" align="middle" lineHeight="125%" anchor="middle" family="微软雅黑" size="14px" weight="400" font-style="" opacity="1" y="8.75" transform="rotate(0)"><tspan id="SvgjsTspan1058" dy="17" x="60"><tspan id="SvgjsTspan1059" style="text-decoration:;">路由器</tspan></tspan></text></g></g><g id="SvgjsG1060" transform="translate(653.7578125,161.5)"><path id="SvgjsPath1061" d="M 0 0L 167 0L 167 58L 0 58Z" stroke="rgba(50,50,50,1)" stroke-width="2" fill-opacity="1" fill="#ffffff"></path><g id="SvgjsG1062"><text id="SvgjsText1063" font-family="微软雅黑" text-anchor="middle" font-size="13px" width="147px" fill="#323232" font-weight="400" align="middle" lineHeight="125%" anchor="middle" family="微软雅黑" size="13px" weight="400" font-style="" opacity="1" y="18.375" transform="rotate(0)"></text></g></g><g id="SvgjsG1064" transform="translate(657.7578125,162)"><path id="SvgjsPath1065" d="M 0 0L 29 0L 29 20L 0 20Z" stroke="rgba(50,50,50,1)" stroke-width="2" fill-opacity="1" fill="#ffffff"></path><g id="SvgjsG1066"><text id="SvgjsText1067" font-family="微软雅黑" text-anchor="middle" font-size="13px" width="9px" fill="#323232" font-weight="400" align="middle" lineHeight="125%" anchor="middle" family="微软雅黑" size="13px" weight="400" font-style="" opacity="1" y="-0.625" transform="rotate(0)"></text></g></g><g id="SvgjsG1068" transform="translate(657.7578125,199.5)"><path id="SvgjsPath1069" d="M 0 4Q 0 0 4 0L 15 0Q 19 0 19 4L 19 16Q 19 20 15 20L 4 20Q 0 20 0 16Z" stroke="none" fill-opacity="1" fill="#323232"></path></g><g id="SvgjsG1070" transform="translate(687.7578125,199.5)"><path id="SvgjsPath1071" d="M 0 4Q 0 0 4 0L 15 0Q 19 0 19 4L 19 16Q 19 20 15 20L 4 20Q 0 20 0 16Z" stroke="none" fill-opacity="1" fill="#323232"></path></g><g id="SvgjsG1072" transform="translate(717.7578125,199.5)"><path id="SvgjsPath1073" d="M 0 4Q 0 0 4 0L 15 0Q 19 0 19 4L 19 16Q 19 20 15 20L 4 20Q 0 20 0 16Z" stroke="none" fill-opacity="1" fill="#323232"></path></g><g id="SvgjsG1074" transform="translate(747.7578125,199.5)"><path id="SvgjsPath1075" d="M 0 4Q 0 0 4 0L 15 0Q 19 0 19 4L 19 16Q 19 20 15 20L 4 20Q 0 20 0 16Z" stroke="none" fill-opacity="1" fill="#323232"></path></g><g id="SvgjsG1076" transform="translate(777.7578125,199.5)"><path id="SvgjsPath1077" d="M 0 4Q 0 0 4 0L 15 0Q 19 0 19 4L 19 16Q 19 20 15 20L 4 20Q 0 20 0 16Z" stroke="none" fill-opacity="1" fill="#323232"></path></g><g id="SvgjsG1078" transform="translate(681.7578125,219.5)"><path id="SvgjsPath1079" d="M 0 0L 120 0L 120 40L 0 40Z" stroke="none" fill="none"></path><g id="SvgjsG1080"><text id="SvgjsText1081" font-family="微软雅黑" text-anchor="middle" font-size="14px" width="120px" fill="#323232" font-weight="400" align="middle" lineHeight="125%" anchor="middle" family="微软雅黑" size="14px" weight="400" font-style="" opacity="1" y="8.25" transform="rotate(0)"><tspan id="SvgjsTspan1082" dy="17" x="60"><tspan id="SvgjsTspan1083" style="text-decoration:;">交换机</tspan></tspan></text></g></g><g id="SvgjsG1084" transform="translate(867.4911458333333,162)"><path id="SvgjsPath1085" d="M 0 0L 165 0L 165 58L 0 58Z" stroke="rgba(50,50,50,1)" stroke-width="2" fill-opacity="1" fill="#ffffff"></path><g id="SvgjsG1086"><text id="SvgjsText1087" font-family="微软雅黑" text-anchor="middle" font-size="13px" width="145px" fill="#323232" font-weight="400" align="middle" lineHeight="125%" anchor="middle" family="微软雅黑" size="13px" weight="400" font-style="" opacity="1" y="18.375" transform="rotate(0)"></text></g></g><g id="SvgjsG1088" transform="translate(873.2578125,161.5)"><path id="SvgjsPath1089" d="M 0 0L 29 0L 29 20L 0 20Z" stroke="rgba(50,50,50,1)" stroke-width="2" fill-opacity="1" fill="#ffffff"></path><g id="SvgjsG1090"><text id="SvgjsText1091" font-family="微软雅黑" text-anchor="middle" font-size="13px" width="9px" fill="#323232" font-weight="400" align="middle" lineHeight="125%" anchor="middle" family="微软雅黑" size="13px" weight="400" font-style="" opacity="1" y="-0.625" transform="rotate(0)"></text></g></g><g id="SvgjsG1092" transform="translate(873.2578125,200)"><path id="SvgjsPath1093" d="M 0 4Q 0 0 4 0L 15 0Q 19 0 19 4L 19 16Q 19 20 15 20L 4 20Q 0 20 0 16Z" stroke="none" fill-opacity="1" fill="#323232"></path></g><g id="SvgjsG1094" transform="translate(902.9578125,200)"><path id="SvgjsPath1095" d="M 0 4Q 0 0 4 0L 15 0Q 19 0 19 4L 19 16Q 19 20 15 20L 4 20Q 0 20 0 16Z" stroke="none" fill-opacity="1" fill="#323232"></path></g><g id="SvgjsG1096" transform="translate(931.2578125,200)"><path id="SvgjsPath1097" d="M 0 4Q 0 0 4 0L 15 0Q 19 0 19 4L 19 16Q 19 20 15 20L 4 20Q 0 20 0 16Z" stroke="none" fill-opacity="1" fill="#323232"></path></g><g id="SvgjsG1098" transform="translate(962.9578125,200)"><path id="SvgjsPath1099" d="M 0 4Q 0 0 4 0L 15 0Q 19 0 19 4L 19 16Q 19 20 15 20L 4 20Q 0 20 0 16Z" stroke="none" fill-opacity="1" fill="#323232"></path></g><g id="SvgjsG1100" transform="translate(992.9578125,200)"><path id="SvgjsPath1101" d="M 0 4Q 0 0 4 0L 15 0Q 19 0 19 4L 19 16Q 19 20 15 20L 4 20Q 0 20 0 16Z" stroke="none" fill-opacity="1" fill="#323232"></path></g><g id="SvgjsG1102" transform="translate(905.7578125,39)"><path id="SvgjsPath1103" d="M 0 9.666666666666666L 62.22222222222222 9.666666666666666L 62.22222222222222 87L 0 87L 0 9.666666666666666Z" stroke="rgba(50,50,50,1)" stroke-width="2" fill-opacity="1" fill="#ffffff"></path><path id="SvgjsPath1104" d="M 0 9.666666666666666L 7.777777777777778 0L 70 0L 70 77.33333333333333L 62.22222222222222 87L 62.22222222222222 9.666666666666666L 0 9.666666666666666ZM 62.22222222222222 9.666666666666666L 70 0" stroke="rgba(50,50,50,1)" stroke-width="2" fill-opacity="1" fill="#e6e6e6"></path><path id="SvgjsPath1105" d="M 0 0L 70 0L 70 87L 0 87Z" stroke="none" fill="none"></path><g id="SvgjsG1106"><text id="SvgjsText1107" font-family="微软雅黑" text-anchor="middle" font-size="14px" width="43px" fill="#323232" font-weight="400" align="middle" lineHeight="125%" anchor="middle" family="微软雅黑" size="14px" weight="400" font-style="" opacity="1" y="36.58333333333333" transform="rotate(0)"><tspan id="SvgjsTspan1108" dy="17" x="31.5"><tspan id="SvgjsTspan1109" style="text-decoration:;">客户端</tspan></tspan></text></g></g><g id="SvgjsG1110" transform="translate(880.7578125,220.5)"><path id="SvgjsPath1111" d="M 0 0L 120 0L 120 41L 0 41Z" stroke="none" fill="none"></path><g id="SvgjsG1112"><text id="SvgjsText1113" font-family="微软雅黑" text-anchor="middle" font-size="14px" width="120px" fill="#323232" font-weight="400" align="middle" lineHeight="125%" anchor="middle" family="微软雅黑" size="14px" weight="400" font-style="" opacity="1" y="8.75" transform="rotate(0)"><tspan id="SvgjsTspan1114" dy="17" x="60"><tspan id="SvgjsTspan1115" style="text-decoration:;">集线器</tspan></tspan></text></g></g><g id="SvgjsG1116"><path id="SvgjsPath1117" d="M938.4578125 127L938.4578125 143.25L938.4578125 143.25L938.4578125 160.5" stroke="#1976d2" stroke-width="2" fill="none" marker-end="url(#SvgjsMarker1118)"></path></g><g id="SvgjsG1120"><path id="SvgjsPath1121" d="M866.4911458333333 189.5L844.1244791666667 189.5L844.1244791666667 189.5L824.3578125 189.5" stroke="#1976d2" stroke-width="2" fill="none" marker-end="url(#SvgjsMarker1122)"></path></g><g id="SvgjsG1124"><path id="SvgjsPath1125" d="M652.7578125 190.5L631.2578125 190.5L631.2578125 190.5L612.3578125 190.5" stroke="#1976d2" stroke-width="2" fill="none" marker-end="url(#SvgjsMarker1126)"></path></g><g id="SvgjsG1128"><path id="SvgjsPath1129" d="M444.2578125 191L429.7578125 191L429.7578125 191L413.8578125 191" stroke="#1976d2" stroke-width="2" fill="none" marker-end="url(#SvgjsMarker1130)"></path></g><g id="SvgjsG1132" transform="translate(25.00066964285719,162)"><path id="SvgjsPath1133" d="M 17.610857142857135 40.599999999999994C -14.675714285714282 29 5.870285714285712 20.299999999999997 13.208142857142853 17.4C 10.272999999999998 2.9000000000000004 46.9622857142857 0 61.63799999999998 5.800000000000001C 73.3785714285714 -2.9000000000000004 110.06785714285711 0 110.06785714285711 8.7C 139.41928571428565 5.800000000000001 151.1598571428571 17.4 139.41928571428565 31.900000000000002C 149.69228571428567 43.5 139.41928571428565 58 105.66514285714283 52.2C 98.3272857142857 59.74 68.97585714285712 59.74 61.63799999999998 52.2C 46.9622857142857 58 17.610857142857135 55.099999999999994 17.610857142857135 40.599999999999994Z" stroke="rgba(50,50,50,1)" stroke-width="2" fill-opacity="1" fill="#00bcd4"></path><g id="SvgjsG1134"><text id="SvgjsText1135" font-family="微软雅黑" text-anchor="middle" font-size="14px" width="127px" fill="#ffffff" font-weight="400" align="middle" lineHeight="125%" anchor="middle" family="微软雅黑" size="14px" weight="400" font-style="" opacity="1" y="17.25" transform="rotate(0)"><tspan id="SvgjsTspan1136" dy="17" x="73.5"><tspan id="SvgjsTspan1137" style="text-decoration:;">互联网</tspan></tspan></text></g></g><g id="SvgjsG1138" transform="translate(167.7578125,176)"><path id="SvgjsPath1139" d="M 0 15L 15 0L 15 9.9L 67.5 9.9L 67.5 20.1L 15 20.1L 15 30L 0 15Z" stroke="rgba(255,255,255,1)" stroke-width="2" fill-opacity="1" fill="#00bcd4"></path><g id="SvgjsG1140"><text id="SvgjsText1141" font-family="微软雅黑" text-anchor="middle" font-size="13px" width="68px" fill="#323232" font-weight="400" align="middle" lineHeight="125%" anchor="middle" family="微软雅黑" size="13px" weight="400" font-style="" opacity="1" y="4.375000000000001" transform="rotate(0)"></text></g></g><g id="SvgjsG1142" transform="translate(180.7578125,142)"><path id="SvgjsPath1143" d="M 0 0L 52 0L 52 34L 0 34Z" stroke="none" fill="none"></path><g id="SvgjsG1144"><text id="SvgjsText1145" font-family="微软雅黑" text-anchor="middle" font-size="16px" width="52px" fill="#323232" font-weight="700" align="middle" lineHeight="125%" anchor="middle" family="微软雅黑" size="16px" weight="700" font-style="" opacity="1" y="3" transform="rotate(0)"><tspan id="SvgjsTspan1146" dy="20" x="26"><tspan id="SvgjsTspan1147" style="text-decoration:;">接入网</tspan></tspan></text></g></g><g id="SvgjsG1148" transform="translate(253.2578125,39)"><path id="SvgjsPath1149" d="M 0 0L 157 0L 157 41L 0 41Z" stroke="none" fill="none"></path><g id="SvgjsG1150"><text id="SvgjsText1151" font-family="微软雅黑" text-anchor="middle" font-size="18px" width="157px" fill="#323232" font-weight="700" align="middle" lineHeight="125%" anchor="middle" family="微软雅黑" size="18px" weight="700" font-style="" opacity="1" y="4.75" transform="rotate(0)"><tspan id="SvgjsTspan1152" dy="22" x="78.5"><tspan id="SvgjsTspan1153" style="text-decoration:;">公司或家庭局域网</tspan></tspan></text></g></g></svg>