<svg id="SvgjsSvg1006" width="802.5" height="418" xmlns="http://www.w3.org/2000/svg" version="1.1" xmlns:xlink="http://www.w3.org/1999/xlink" xmlns:svgjs="http://svgjs.com/svgjs"><defs id="SvgjsDefs1007"><marker id="SvgjsMarker1124" markerWidth="14" markerHeight="10" refX="10" refY="5" viewBox="0 0 14 10" orient="auto" markerUnits="userSpaceOnUse" stroke-dasharray="0,0"><path id="SvgjsPath1125" d="M0,0 L14,5 L0,10 L0,0" fill="#323232" stroke="#323232" stroke-width="1"></path></marker><marker id="SvgjsMarker1128" markerWidth="14" markerHeight="10" refX="10" refY="5" viewBox="0 0 14 10" orient="auto" markerUnits="userSpaceOnUse" stroke-dasharray="0,0"><path id="SvgjsPath1129" d="M0,0 L14,5 L0,10 L0,0" fill="#323232" stroke="#323232" stroke-width="1"></path></marker><marker id="SvgjsMarker1132" markerWidth="14" markerHeight="10" refX="10" refY="5" viewBox="0 0 14 10" orient="auto" markerUnits="userSpaceOnUse" stroke-dasharray="0,0"><path id="SvgjsPath1133" d="M0,0 L14,5 L0,10 L0,0" fill="#323232" stroke="#323232" stroke-width="1"></path></marker><marker id="SvgjsMarker1136" markerWidth="14" markerHeight="10" refX="10" refY="5" viewBox="0 0 14 10" orient="auto" markerUnits="userSpaceOnUse" stroke-dasharray="0,0"><path id="SvgjsPath1137" d="M0,0 L14,5 L0,10 L0,0" fill="#323232" stroke="#323232" stroke-width="1"></path></marker><marker id="SvgjsMarker1140" markerWidth="14" markerHeight="10" refX="10" refY="5" viewBox="0 0 14 10" orient="auto" markerUnits="userSpaceOnUse" stroke-dasharray="0,0"><path id="SvgjsPath1141" d="M0,0 L14,5 L0,10 L0,0" fill="#323232" stroke="#323232" stroke-width="1"></path></marker><marker id="SvgjsMarker1144" markerWidth="14" markerHeight="10" refX="10" refY="5" viewBox="0 0 14 10" orient="auto" markerUnits="userSpaceOnUse" stroke-dasharray="0,0"><path id="SvgjsPath1145" d="M0,0 L14,5 L0,10 L0,0" fill="#323232" stroke="#323232" stroke-width="1"></path></marker><marker id="SvgjsMarker1148" markerWidth="14" markerHeight="10" refX="10" refY="5" viewBox="0 0 14 10" orient="auto" markerUnits="userSpaceOnUse" stroke-dasharray="0,0"><path id="SvgjsPath1149" d="M0,0 L14,5 L0,10 L0,0" fill="#323232" stroke="#323232" stroke-width="1"></path></marker><marker id="SvgjsMarker1152" markerWidth="14" markerHeight="10" refX="10" refY="5" viewBox="0 0 14 10" orient="auto" markerUnits="userSpaceOnUse" stroke-dasharray="0,0"><path id="SvgjsPath1153" d="M0,0 L14,5 L0,10 L0,0" fill="#323232" stroke="#323232" stroke-width="1"></path></marker><marker id="SvgjsMarker1156" markerWidth="14" markerHeight="10" refX="10" refY="5" viewBox="0 0 14 10" orient="auto" markerUnits="userSpaceOnUse" stroke-dasharray="0,0"><path id="SvgjsPath1157" d="M0,0 L14,5 L0,10 L0,0" fill="#323232" stroke="#323232" stroke-width="1"></path></marker><marker id="SvgjsMarker1160" markerWidth="14" markerHeight="10" refX="10" refY="5" viewBox="0 0 14 10" orient="auto" markerUnits="userSpaceOnUse" stroke-dasharray="0,0"><path id="SvgjsPath1161" d="M0,0 L14,5 L0,10 L0,0" fill="#323232" stroke="#323232" stroke-width="1"></path></marker><marker id="SvgjsMarker1164" markerWidth="14" markerHeight="10" refX="10" refY="5" viewBox="0 0 14 10" orient="auto" markerUnits="userSpaceOnUse" stroke-dasharray="0,0"><path id="SvgjsPath1165" d="M0,0 L14,5 L0,10 L0,0" fill="#323232" stroke="#323232" stroke-width="1"></path></marker><marker id="SvgjsMarker1168" markerWidth="14" markerHeight="10" refX="10" refY="5" viewBox="0 0 14 10" orient="auto" markerUnits="userSpaceOnUse" stroke-dasharray="0,0"><path id="SvgjsPath1169" d="M0,0 L14,5 L0,10 L0,0" fill="#323232" stroke="#323232" stroke-width="1"></path></marker><marker id="SvgjsMarker1204" markerWidth="14" markerHeight="10" refX="10" refY="5" viewBox="0 0 14 10" orient="auto" markerUnits="userSpaceOnUse" stroke-dasharray="0,0"><path id="SvgjsPath1205" d="M0,0 L14,5 L0,10 L0,0" fill="#323232" stroke="#323232" stroke-width="1"></path></marker><marker id="SvgjsMarker1208" markerWidth="14" markerHeight="10" refX="10" refY="5" viewBox="0 0 14 10" orient="auto" markerUnits="userSpaceOnUse" stroke-dasharray="0,0"><path id="SvgjsPath1209" d="M0,0 L14,5 L0,10 L0,0" fill="#323232" stroke="#323232" stroke-width="1"></path></marker></defs><g id="SvgjsG1008" transform="translate(25,99.25)"><path id="SvgjsPath1009" d="M 0 0L 131 0L 131 101.5L 0 101.5Z" stroke="rgba(50,50,50,1)" stroke-width="2" fill-opacity="1" fill="#ffffff"></path><g id="SvgjsG1010"><text id="SvgjsText1011" font-family="微软雅黑" text-anchor="middle" font-size="14px" width="111px" fill="#323232" font-weight="700" align="middle" lineHeight="125%" anchor="middle" family="微软雅黑" size="14px" weight="700" font-style="" opacity="1" y="39" transform="rotate(0)"></text></g></g><g id="SvgjsG1012" transform="translate(201,122)"><path id="SvgjsPath1013" d="M 0 0L 116 0L 116 34L 0 34Z" stroke="rgba(50,50,50,1)" stroke-width="2" fill-opacity="1" fill="#ffffff"></path><g id="SvgjsG1014"><text id="SvgjsText1015" font-family="微软雅黑" text-anchor="middle" font-size="14px" width="96px" fill="#323232" font-weight="700" align="middle" lineHeight="125%" anchor="middle" family="微软雅黑" size="14px" weight="700" font-style="" opacity="1" y="5.25" transform="rotate(0)"><tspan id="SvgjsTspan1016" dy="17" x="58"><tspan id="SvgjsTspan1017" style="text-decoration:;">交换机</tspan></tspan></text></g></g><g id="SvgjsG1018" transform="translate(201,72)"><path id="SvgjsPath1019" d="M 0 0L 116 0L 116 29L 0 29Z" stroke="rgba(50,50,50,1)" stroke-width="2" fill-opacity="1" fill="#ffffff"></path><g id="SvgjsG1020"><text id="SvgjsText1021" font-family="微软雅黑" text-anchor="middle" font-size="14px" width="96px" fill="#323232" font-weight="700" align="middle" lineHeight="125%" anchor="middle" family="微软雅黑" size="14px" weight="700" font-style="" opacity="1" y="2.75" transform="rotate(0)"><tspan id="SvgjsTspan1022" dy="17" x="58"><tspan id="SvgjsTspan1023" style="text-decoration:;">集线器</tspan></tspan></text></g></g><g id="SvgjsG1024" transform="translate(646.5,108.5)"><path id="SvgjsPath1025" d="M 0 0L 131 0L 131 29L 0 29Z" stroke="rgba(50,50,50,1)" stroke-width="2" fill-opacity="1" fill="#ffffff"></path><g id="SvgjsG1026"><text id="SvgjsText1027" font-family="微软雅黑" text-anchor="middle" font-size="14px" width="111px" fill="#323232" font-weight="700" align="middle" lineHeight="125%" anchor="middle" family="微软雅黑" size="14px" weight="700" font-style="" opacity="1" y="2.75" transform="rotate(0)"><tspan id="SvgjsTspan1028" dy="17" x="65.5"><tspan id="SvgjsTspan1029" style="text-decoration:;">网卡驱动</tspan></tspan></text></g></g><g id="SvgjsG1030" transform="translate(646.5,55)"><path id="SvgjsPath1031" d="M 0 0L 131 0L 131 22L 0 22Z" stroke="rgba(50,50,50,1)" stroke-width="2" fill-opacity="1" fill="#ffffff"></path><g id="SvgjsG1032"><text id="SvgjsText1033" font-family="微软雅黑" text-anchor="middle" font-size="14px" width="111px" fill="#323232" font-weight="700" align="middle" lineHeight="125%" anchor="middle" family="微软雅黑" size="14px" weight="700" font-style="" opacity="1" y="-0.75" transform="rotate(0)"><tspan id="SvgjsTspan1034" dy="17" x="65.5"><tspan id="SvgjsTspan1035" style="text-decoration:;">网卡</tspan></tspan></text></g></g><g id="SvgjsG1036" transform="translate(482.5,193.5)"><path id="SvgjsPath1037" d="M 0 0L 131 0L 131 29L 0 29Z" stroke="rgba(50,50,50,1)" stroke-width="2" fill-opacity="1" fill="#ffffff"></path><g id="SvgjsG1038"><text id="SvgjsText1039" font-family="微软雅黑" text-anchor="middle" font-size="14px" width="111px" fill="#323232" font-weight="700" align="middle" lineHeight="125%" anchor="middle" family="微软雅黑" size="14px" weight="700" font-style="" opacity="1" y="2.75" transform="rotate(0)"><tspan id="SvgjsTspan1040" dy="17" x="65.5"><tspan id="SvgjsTspan1041" style="text-decoration:;">缓存服务器</tspan></tspan></text></g></g><g id="SvgjsG1042" transform="translate(482.5,106)"><path id="SvgjsPath1043" d="M 0 0L 131 0L 131 34L 0 34Z" stroke="rgba(50,50,50,1)" stroke-width="2" fill-opacity="1" fill="#ffffff"></path><g id="SvgjsG1044"><text id="SvgjsText1045" font-family="微软雅黑" text-anchor="middle" font-size="14px" width="111px" fill="#323232" font-weight="700" align="middle" lineHeight="125%" anchor="middle" family="微软雅黑" size="14px" weight="700" font-style="" opacity="1" y="5.25" transform="rotate(0)"><tspan id="SvgjsTspan1046" dy="17" x="65.5"><tspan id="SvgjsTspan1047" style="text-decoration:;">防火墙</tspan></tspan></text></g></g><g id="SvgjsG1048" transform="translate(201,181.5)"><path id="SvgjsPath1049" d="M 0 0L 116 0L 116 29L 0 29Z" stroke="rgba(50,50,50,1)" stroke-width="2" fill-opacity="1" fill="#ffffff"></path><g id="SvgjsG1050"><text id="SvgjsText1051" font-family="微软雅黑" text-anchor="middle" font-size="14px" width="96px" fill="#323232" font-weight="700" align="middle" lineHeight="125%" anchor="middle" family="微软雅黑" size="14px" weight="700" font-style="" opacity="1" y="2.75" transform="rotate(0)"><tspan id="SvgjsTspan1052" dy="17" x="58"><tspan id="SvgjsTspan1053" style="text-decoration:;">路由器</tspan></tspan></text></g></g><g id="SvgjsG1054" transform="translate(201,224)"><path id="SvgjsPath1055" d="M 0 0L 116 0L 116 34L 0 34Z" stroke="rgba(50,50,50,1)" stroke-width="2" fill-opacity="1" fill="#ffffff"></path><g id="SvgjsG1056"><text id="SvgjsText1057" font-family="微软雅黑" text-anchor="middle" font-size="14px" width="96px" fill="#323232" font-weight="700" align="middle" lineHeight="125%" anchor="middle" family="微软雅黑" size="14px" weight="700" font-style="" opacity="1" y="-3.25" transform="rotate(0)"><tspan id="SvgjsTspan1058" dy="17" x="58"><tspan id="SvgjsTspan1059" style="text-decoration:;">互联网接入路</tspan></tspan><tspan id="SvgjsTspan1060" dy="17" x="58"><tspan id="SvgjsTspan1061" style="text-decoration:;">由</tspan></tspan></text></g></g><g id="SvgjsG1062" transform="translate(646.5,287.5)"><path id="SvgjsPath1063" d="M 0 0L 131 0L 131 29L 0 29Z" stroke="rgba(50,50,50,1)" stroke-width="2" fill-opacity="1" fill="#ffffff"></path><g id="SvgjsG1064"><text id="SvgjsText1065" font-family="微软雅黑" text-anchor="middle" font-size="14px" width="111px" fill="#323232" font-weight="700" align="middle" lineHeight="125%" anchor="middle" family="微软雅黑" size="14px" weight="700" font-style="" opacity="1" y="2.75" transform="rotate(0)"><tspan id="SvgjsTspan1066" dy="17" x="65.5"><tspan id="SvgjsTspan1067" style="text-decoration:;">Web服务器</tspan></tspan></text></g></g><g id="SvgjsG1068" transform="translate(646,161.5)"><path id="SvgjsPath1069" d="M 0 4Q 0 0 4 0L 127 0Q 131 0 131 4L 131 92Q 131 96 127 96L 4 96Q 0 96 0 92Z" stroke="rgba(50,50,50,1)" stroke-width="2" fill-opacity="1" fill="#ffffff"></path><g id="SvgjsG1070"><text id="SvgjsText1071" font-family="微软雅黑" text-anchor="middle" font-size="14px" width="121px" fill="#323232" font-weight="700" align="middle" lineHeight="125%" anchor="middle" family="微软雅黑" size="14px" weight="700" font-style="" opacity="1" y="-3.8928571428571432" transform="rotate(0)"><tspan id="SvgjsTspan1072" dy="17" x="65.5"><tspan id="SvgjsTspan1073" style="text-decoration:;">协议栈</tspan></tspan></text></g></g><g id="SvgjsG1074" transform="translate(654,181.5)"><path id="SvgjsPath1075" d="M 0 0L 116 0L 116 29L 0 29Z" stroke-dasharray="3,4" stroke="rgba(50,50,50,1)" stroke-width="2" fill-opacity="1" fill="#ffffff"></path><g id="SvgjsG1076"><text id="SvgjsText1077" font-family="微软雅黑" text-anchor="middle" font-size="14px" width="96px" fill="#323232" font-weight="700" align="middle" lineHeight="125%" anchor="middle" family="微软雅黑" size="14px" weight="700" font-style="" opacity="1" y="2.75" transform="rotate(0)"><tspan id="SvgjsTspan1078" dy="17" x="58"><tspan id="SvgjsTspan1079" style="text-decoration:;">IP</tspan></tspan></text></g></g><g id="SvgjsG1080" transform="translate(654,226.5)"><path id="SvgjsPath1081" d="M 0 0L 116 0L 116 29L 0 29Z" stroke-dasharray="3,4" stroke="rgba(50,50,50,1)" stroke-width="2" fill-opacity="1" fill="#ffffff"></path><g id="SvgjsG1082"><text id="SvgjsText1083" font-family="微软雅黑" text-anchor="middle" font-size="14px" width="96px" fill="#323232" font-weight="700" align="middle" lineHeight="125%" anchor="middle" family="微软雅黑" size="14px" weight="700" font-style="" opacity="1" y="2.75" transform="rotate(0)"><tspan id="SvgjsTspan1084" dy="17" x="58"><tspan id="SvgjsTspan1085" style="text-decoration:;">TCP</tspan></tspan></text></g></g><g id="SvgjsG1086" transform="translate(26.5,51.5)"><path id="SvgjsPath1087" d="M 0 0L 131 0L 131 29L 0 29Z" stroke="rgba(50,50,50,1)" stroke-width="2" fill-opacity="1" fill="#ffffff"></path><g id="SvgjsG1088"><text id="SvgjsText1089" font-family="微软雅黑" text-anchor="middle" font-size="14px" width="111px" fill="#323232" font-weight="700" align="middle" lineHeight="125%" anchor="middle" family="微软雅黑" size="14px" weight="700" font-style="" opacity="1" y="2.75" transform="rotate(0)"><tspan id="SvgjsTspan1090" dy="17" x="65.5"><tspan id="SvgjsTspan1091" style="text-decoration:;">浏览器</tspan></tspan></text></g></g><g id="SvgjsG1092" transform="translate(26.5,226.5)"><path id="SvgjsPath1093" d="M 0 0L 131 0L 131 29L 0 29Z" stroke="rgba(50,50,50,1)" stroke-width="2" fill-opacity="1" fill="#ffffff"></path><g id="SvgjsG1094"><text id="SvgjsText1095" font-family="微软雅黑" text-anchor="middle" font-size="14px" width="111px" fill="#323232" font-weight="700" align="middle" lineHeight="125%" anchor="middle" family="微软雅黑" size="14px" weight="700" font-style="" opacity="1" y="2.75" transform="rotate(0)"><tspan id="SvgjsTspan1096" dy="17" x="65.5"><tspan id="SvgjsTspan1097" style="text-decoration:;">网卡驱动</tspan></tspan></text></g></g><g id="SvgjsG1098" transform="translate(26.5,272.5)"><path id="SvgjsPath1099" d="M 0 0L 131 0L 131 29L 0 29Z" stroke="rgba(50,50,50,1)" stroke-width="2" fill-opacity="1" fill="#ffffff"></path><g id="SvgjsG1100"><text id="SvgjsText1101" font-family="微软雅黑" text-anchor="middle" font-size="14px" width="111px" fill="#323232" font-weight="700" align="middle" lineHeight="125%" anchor="middle" family="微软雅黑" size="14px" weight="700" font-style="" opacity="1" y="2.75" transform="rotate(0)"><tspan id="SvgjsTspan1102" dy="17" x="65.5"><tspan id="SvgjsTspan1103" style="text-decoration:;">网卡</tspan></tspan></text></g></g><g id="SvgjsG1104" transform="translate(34,135.5)"><path id="SvgjsPath1105" d="M 0 0L 116 0L 116 29L 0 29Z" stroke-dasharray="3,4" stroke="rgba(50,50,50,1)" stroke-width="2" fill-opacity="1" fill="#ffffff"></path><g id="SvgjsG1106"><text id="SvgjsText1107" font-family="微软雅黑" text-anchor="middle" font-size="14px" width="96px" fill="#323232" font-weight="700" align="middle" lineHeight="125%" anchor="middle" family="微软雅黑" size="14px" weight="700" font-style="" opacity="1" y="2.75" transform="rotate(0)"><tspan id="SvgjsTspan1108" dy="17" x="58"><tspan id="SvgjsTspan1109" style="text-decoration:;">IP</tspan></tspan></text></g></g><g id="SvgjsG1110" transform="translate(34,170)"><path id="SvgjsPath1111" d="M 0 0L 116 0L 116 29L 0 29Z" stroke-dasharray="3,4" stroke="rgba(50,50,50,1)" stroke-width="2" fill-opacity="1" fill="#ffffff"></path><g id="SvgjsG1112"><text id="SvgjsText1113" font-family="微软雅黑" text-anchor="middle" font-size="14px" width="96px" fill="#323232" font-weight="700" align="middle" lineHeight="125%" anchor="middle" family="微软雅黑" size="14px" weight="700" font-style="" opacity="1" y="2.75" transform="rotate(0)"><tspan id="SvgjsTspan1114" dy="17" x="58"><tspan id="SvgjsTspan1115" style="text-decoration:;">TCP</tspan></tspan></text></g></g><g id="SvgjsG1116" transform="translate(63,112)"><path id="SvgjsPath1117" d="M 0 0L 55 0L 55 22L 0 22Z" stroke="none" fill="none"></path><g id="SvgjsG1118"><text id="SvgjsText1119" font-family="微软雅黑" text-anchor="middle" font-size="14px" width="55px" fill="#323232" font-weight="700" align="middle" lineHeight="125%" anchor="middle" family="微软雅黑" size="14px" weight="700" font-style="" opacity="1" y="-0.75" transform="rotate(0)"><tspan id="SvgjsTspan1120" dy="17" x="27.5"><tspan id="SvgjsTspan1121" style="text-decoration:;">协议栈</tspan></tspan></text></g></g><g id="SvgjsG1122"><path id="SvgjsPath1123" d="M92 200L92 210.5L92 210.5L92 222.9" stroke="#323232" stroke-width="2" fill="none" marker-end="url(#SvgjsMarker1124)"></path></g><g id="SvgjsG1126"><path id="SvgjsPath1127" d="M92 256.5L92 262.75L92 262.75L92 268.9" stroke="#323232" stroke-width="2" fill="none" marker-end="url(#SvgjsMarker1128)"></path></g><g id="SvgjsG1130"><path id="SvgjsPath1131" d="M90.5 81.5L90.5 90.5L90.5 90.5L90.5 95.65" stroke="#323232" stroke-width="2" fill="none" marker-end="url(#SvgjsMarker1132)"></path></g><g id="SvgjsG1134"><path id="SvgjsPath1135" d="M92 302.5L92 327.5L177.5 327.5L177.5 42L259 42L259 68.4" stroke="#323232" stroke-width="2" fill="none" marker-end="url(#SvgjsMarker1136)"></path></g><g id="SvgjsG1138"><path id="SvgjsPath1139" d="M259 102L259 112L259 112L259 118.4" stroke="#323232" stroke-width="2" fill="none" marker-end="url(#SvgjsMarker1140)"></path></g><g id="SvgjsG1142"><path id="SvgjsPath1143" d="M259 157L259 165.5L259 165.5L259 177.9" stroke="#323232" stroke-width="2" fill="none" marker-end="url(#SvgjsMarker1144)"></path></g><g id="SvgjsG1146"><path id="SvgjsPath1147" d="M259 211.5L259 217.5L259 217.5L259 220.4" stroke="#323232" stroke-width="2" fill="none" marker-end="url(#SvgjsMarker1148)"></path></g><g id="SvgjsG1150"><path id="SvgjsPath1151" d="M548 141L548 167L548 167L548 189.9" stroke="#323232" stroke-width="2" fill="none" marker-end="url(#SvgjsMarker1152)"></path></g><g id="SvgjsG1154"><path id="SvgjsPath1155" d="M548 223.5L548 250L629.5 250L629.5 25L712 25L712 51.400000000000006" stroke="#323232" stroke-width="2" fill="none" marker-end="url(#SvgjsMarker1156)"></path></g><g id="SvgjsG1158"><path id="SvgjsPath1159" d="M712 78L712 91.5L712 91.5L712 104.9" stroke="#323232" stroke-width="2" fill="none" marker-end="url(#SvgjsMarker1160)"></path></g><g id="SvgjsG1162"><path id="SvgjsPath1163" d="M712 138.5L712 146.75L712 146.75L712 156.4" stroke="#323232" stroke-width="2" fill="none" marker-end="url(#SvgjsMarker1164)"></path></g><g id="SvgjsG1166"><path id="SvgjsPath1167" d="M712 256.5L712 269.5L712 269.5L712 283.9" stroke="#323232" stroke-width="2" fill="none" marker-end="url(#SvgjsMarker1168)"></path></g><g id="SvgjsG1170" transform="translate(48.25,352.5)"><path id="SvgjsPath1171" d="M 0 0L 87.5 0L 87.5 29L 0 29Z" stroke="none" fill="none"></path><g id="SvgjsG1172"><text id="SvgjsText1173" font-family="微软雅黑" text-anchor="middle" font-size="19px" width="88px" fill="#2196f3" font-weight="700" align="middle" lineHeight="125%" anchor="middle" family="微软雅黑" size="19px" weight="700" font-style="" opacity="1" y="-1.875" transform="rotate(0)"><tspan id="SvgjsTspan1174" dy="23" x="44"><tspan id="SvgjsTspan1175" style="text-decoration:;">客户端</tspan></tspan></text></g></g><g id="SvgjsG1176" transform="translate(201,350)"><path id="SvgjsPath1177" d="M 0 0L 116 0L 116 34L 0 34Z" stroke="none" fill="none"></path><g id="SvgjsG1178"><text id="SvgjsText1179" font-family="微软雅黑" text-anchor="middle" font-size="19px" width="116px" fill="#2196f3" font-weight="700" align="middle" lineHeight="125%" anchor="middle" family="微软雅黑" size="19px" weight="700" font-style="" opacity="1" y="0.625" transform="rotate(0)"><tspan id="SvgjsTspan1180" dy="23" x="58"><tspan id="SvgjsTspan1181" style="text-decoration:;">客户端局域网</tspan></tspan></text></g></g><g id="SvgjsG1182" transform="translate(503,341)"><path id="SvgjsPath1183" d="M 0 0L 109 0L 109 52L 0 52Z" stroke="none" fill="none"></path><g id="SvgjsG1184"><text id="SvgjsText1185" font-family="微软雅黑" text-anchor="middle" font-size="19px" width="109px" fill="#2196f3" font-weight="700" align="middle" lineHeight="125%" anchor="middle" family="微软雅黑" size="19px" weight="700" font-style="" opacity="1" y="-2.375" transform="rotate(0)"><tspan id="SvgjsTspan1186" dy="23" x="54.5"><tspan id="SvgjsTspan1187" style="text-decoration:;">服务器端局</tspan></tspan><tspan id="SvgjsTspan1188" dy="23" x="54.5"><tspan id="SvgjsTspan1189" style="text-decoration:;">域网</tspan></tspan></text></g></g><g id="SvgjsG1190" transform="translate(657.5,341)"><path id="SvgjsPath1191" d="M 0 0L 109 0L 109 29L 0 29Z" stroke="none" fill="none"></path><g id="SvgjsG1192"><text id="SvgjsText1193" font-family="微软雅黑" text-anchor="middle" font-size="19px" width="109px" fill="#2196f3" font-weight="700" align="middle" lineHeight="125%" anchor="middle" family="微软雅黑" size="19px" weight="700" font-style="" opacity="1" y="-1.875" transform="rotate(0)"><tspan id="SvgjsTspan1194" dy="23" x="54.5"><tspan id="SvgjsTspan1195" style="text-decoration:;">Web服务器</tspan></tspan></text></g></g><g id="SvgjsG1196" transform="translate(355,138)"><path id="SvgjsPath1197" d="M 13.08 36.4C -10.9 26 4.36 18.2 9.81 15.6C 7.630000000000001 2.6 34.88 0 45.78 5.2C 54.5 -2.6 81.75 0 81.75 7.8C 103.55 5.2 112.27 15.6 103.55 28.6C 111.18 39 103.55 52 78.48 46.800000000000004C 73.03 53.56 51.23 53.56 45.78 46.800000000000004C 34.88 52 13.08 49.4 13.08 36.4Z" stroke="rgba(255,255,255,1)" stroke-width="2" fill-opacity="1" fill="#4dd0e1"></path><g id="SvgjsG1198"><text id="SvgjsText1199" font-family="微软雅黑" text-anchor="middle" font-size="14px" width="89px" fill="#ffffff" font-weight="700" align="middle" lineHeight="125%" anchor="middle" family="微软雅黑" size="14px" weight="700" font-style="" opacity="1" y="14.25" transform="rotate(0)"><tspan id="SvgjsTspan1200" dy="17" x="54.5"><tspan id="SvgjsTspan1201" style="text-decoration:;">互联网</tspan></tspan></text></g></g><g id="SvgjsG1202"><path id="SvgjsPath1203" d="M456.2015 150.42L468.60075000000006 150.42L468.60075000000006 80L548 80L548 102.4" stroke="#323232" stroke-width="2" fill="none" marker-end="url(#SvgjsMarker1204)"></path></g><g id="SvgjsG1206"><path id="SvgjsPath1207" d="M259 259L259 288L336 288L336 164L351.4 164" stroke="#323232" stroke-width="2" fill="none" marker-end="url(#SvgjsMarker1208)"></path></g></svg>